0
SECTION
2
HEADER
9
$INSUNITS
70
4
9
$ACADVER
1
AC1014
9
$HANDSEED
5
FFFF
0
ENDSEC
0
SECTION
2
TABLES
0
TABLE
2
VPORT
5
8
100
AcDbSymbolTable
0
ENDTAB
0
TABLE
2
LTYPE
5
5
100
AcDbSymbolTable
0
LTYPE
5
14
100
AcDbSymbolTableRecord
100
AcDbLinetypeTableRecord
2
BYBLOCK
70
0
0
LTYPE
5
15
100
AcDbSymbolTableRecord
100
AcDbLinetypeTableRecord
2
BYLAYER
70
0
0
ENDTAB
0
TABLE
2
LAYER
5
2
100
AcDbSymbolTable
70
2
0
LAYER
5
50
100
AcDbSymbolTableRecord
100
AcDbLayerTableRecord
2
0
70
0
6
CONTINUOUS
0
ENDTAB
0
TABLE
2
STYLE
5
3
100
AcDbSymbolTable
70
1
0
STYLE
5
11
100
AcDbSymbolTableRecord
100
AcDbTextStyleTableRecord
2
STANDARD
70
0
0
ENDTAB
0
TABLE
2
VIEW
5
6
100
AcDbSymbolTable
70
0
0
ENDTAB
0
TABLE
2
UCS
5
7
100
AcDbSymbolTable
70
0
0
ENDTAB
0
TABLE
2
APPID
5
9
100
AcDbSymbolTable
70
2
0
APPID
5
12
100
AcDbSymbolTableRecord
100
AcDbRegAppTableRecord
2
ACAD
70
0
0
ENDTAB
0
TABLE
2
DIMSTYLE
5
A
100
AcDbSymbolTable
70
1
0
ENDTAB
0
TABLE
2
BLOCK_RECORD
5
1
100
AcDbSymbolTable
70
1
0
BLOCK_RECORD
5
1F
100
AcDbSymbolTableRecord
100
AcDbBlockTableRecord
2
*MODEL_SPACE
0
BLOCK_RECORD
5
1B
100
AcDbSymbolTableRecord
100
AcDbBlockTableRecord
2
*PAPER_SPACE
0
ENDTAB
0
ENDSEC
0
SECTION
2
BLOCKS
0
BLOCK
5
20
100
AcDbEntity
100
AcDbBlockBegin
2
*MODEL_SPACE
0
ENDBLK
5
21
100
AcDbEntity
100
AcDbBlockEnd
0
BLOCK
5
1C
100
AcDbEntity
100
AcDbBlockBegin
2
*PAPER_SPACE
0
ENDBLK
5
1D
100
AcDbEntity
100
AcDbBlockEnd
0
ENDSEC
0
SECTION
2
ENTITIES
0
LWPOLYLINE
5
100
100
AcDbEntity
8
0
100
AcDbPolyline
90
77
70
1
43
0.0
10
-256.71591589846105
20
-10.591999999999624
42
-0.40355805679367496
10
-253.82544175775834
20
-13.590000000000035
42
0.99999999999999989
10
-243.82544172795602
20
-13.590000000000035
42
-0.40355805679401602
10
-240.93496758724982
20
-10.591999999999508
10
-216.38377304132703
20
-10.591999999999338
42
-0.40355805679453433
10
-213.49329890061554
20
-13.590000000000053
42
0.99999999999999989
10
-203.49329887081313
20
-13.590000000000053
42
-0.40355805679482221
10
-200.60282473009863
20
-10.591999999999224
10
-176.05163018419239
20
-10.591999999999054
42
-0.40355805679533524
10
-173.16115604347266
20
-13.590000000000053
42
0.99999999999999989
10
-163.16115601367028
20
-13.590000000000053
42
-0.40355805679557666
10
-160.27068187294799
20
-10.59199999999894
10
-135.71948732705741
20
-10.591999999998766
42
-0.40355805679609175
10
-132.82901318632977
20
-13.590000000000071
42
0.99999999999999989
10
-122.82901315652744
20
-13.590000000000071
42
-0.40355805679637941
10
-119.93853901579682
20
-10.591999999998656
10
-95.387344469922368
20
-10.59199999999848
42
-0.40355805679684964
10
-92.496870329186933
20
-13.590000000000071
42
0.99999999999999989
10
-82.496870299384597
20
-13.590000000000089
42
-0.40355805679718215
10
-79.606396158645666
20
-10.591999999998372
10
-55.055201612787563
20
-10.591999999998185
42
-0.40355805679762996
10
-52.164727472044063
20
-13.590000000000089
42
0.99999999999999989
10
-42.164727442241734
20
-13.590000000000089
42
-0.40355805679794415
10
-39.274253301495044
20
-10.591999999998087
10
-30.111500014901118
20
-10.591999999998016
10
-30.111500014901114
20
-12.699999999999996
42
0.4142135623730952
10
-26.811499999999953
20
-16.000000014901161
10
-11.81149999999996
20
-16.000000014901158
42
0.043506818607334942
10
-11.240460853918998
20
-15.95021759148379
42
0.78011263680424625
10
-1.8325845850988722
20
-13.590000000000106
42
-0.40355805679874496
10
1.057889555656143
20
-10.591999999997803
10
8.6678999999999959
20
-10.591999999999935
42
0.41421356237307921
10
10.167900000000005
20
-9.0919999999999668
10
10.167899999999989
20
113.73440000000008
42
0.1233776759521682
10
9.9906720017944988
20
114.44170066539533
42
0.27687996747450133
10
8.6674153999999941
20
115.23530701490105
10
1.1674153999999966
20
115.23530701490105
42
-0.41421356237309404
10
-1.8325845850988376
20
118.23530699999991
42
0.99999999999999989
10
-11.832584614901194
20
118.23530699999991
42
-0.41421356237309681
10
-14.832584600000001
20
115.23530701490108
10
-39.164727457142881
20
115.23530701490105
42
-0.41421356237309198
10
-42.164727442241698
20
118.23530699999992
42
0.99999999999999989
10
-52.164727472044021
20
118.23530699999992
42
-0.41421356237309853
10
-55.16472745714286
20
115.23530701490108
10
-79.496870314285715
20
115.2353070149011
42
-0.4142135623730977
10
-82.496870299384554
20
118.23530699999993
42
0.99999999999999989
10
-92.496870329186891
20
118.23530699999993
42
-0.41421356237309681
10
-95.496870314285729
20
115.2353070149011
10
-119.82901317142856
20
115.23530701490111
42
-0.41421356237309681
10
-122.8290131565274
20
118.23530699999993
42
0.99999999999999989
10
-132.82901318632975
20
118.23530699999993
42
-0.41421356237309681
10
-135.82901317142858
20
115.2353070149011
10
-160.16115602857141
20
115.23530701490111
42
-0.41421356237309681
10
-163.16115601367028
20
118.23530699999995
42
0.99999999999999989
10
-173.1611560434726
20
118.23530699999995
42
-0.41421356237310197
10
-176.16115602857147
20
115.23530701490111
10
-200.49329888571432
20
115.23530701490114
42
-0.41421356237309509
10
-203.49329887081313
20
118.23530699999995
42
0.99999999999999989
10
-213.49329890061546
20
118.23530699999998
42
-0.41421356237310197
10
-216.49329888571432
20
115.23530701490114
10
-240.82544174285715
20
115.23530701490115
42
-0.41421356237309509
10
-243.82544172795599
20
118.23530699999998
42
0.99999999999999989
10
-253.82544175775826
20
118.23530699999998
42
-0.41421356237310197
10
-256.82544174285715
20
115.23530701490114
10
-281.15758460000001
20
115.23530701490115
42
-0.41421356237309681
10
-284.15758458509885
20
118.23530699999999
42
0.99999999999999989
10
-294.15758461490117
20
118.23530699999998
42
-0.41421356237310197
10
-297.15758460000001
20
115.23530701490115
10
-304.65750000000003
20
115.23530701490117
42
0.18639734560371637
10
-305.66574875064163
20
114.845907964133
42
0.21172270006916677
10
-306.1585
20
113.73440000000009
10
-306.15850000000006
20
-9.0919999999999135
42
0.4142135623730786
10
-304.6585
20
-10.591999999999953
10
-297.04805875559515
20
-10.591999999999926
42
-0.40355805679282408
10
-294.15758461490122
20
-13.590000000000018
42
0.99999999999999989
10
-284.1575845850989
20
-13.590000000000018
42
-0.40355805679320994
10
-281.267110444401
20
-10.591999999999793
0
LWPOLYLINE
5
101
100
AcDbEntity
8
0
100
AcDbPolyline
90
8
70
1
43
0.0
10
14.167415400000005
20
121.23481900000009
10
14.167415400000001
20
-16.590999999999916
42
-0.41421356237309132
10
11.167415399999996
20
-19.590999999999923
10
-307.15750000000003
20
-19.590999999999905
42
-0.41421356237309681
10
-310.15750000000003
20
-16.590999999999916
10
-310.15750000000003
20
121.23481900000009
42
-0.41421356237309331
10
-307.15750000000003
20
124.23481900000007
10
11.167415400000031
20
124.2348190000001
42
-0.41421356237309226
0
CIRCLE
5
102
100
AcDbEntity
8
0
100
AcDbCircle
10
-305.65758459999995
20
-15.09099999999993
30
0
40
1.7000000000000002
210
0
220
-0
230
1
0
CIRCLE
5
103
100
AcDbEntity
8
0
100
AcDbCircle
10
-147.99508459999998
20
-15.09099999999993
30
0
40
1.7000000000000002
210
0
220
-0
230
1
0
CIRCLE
5
104
100
AcDbEntity
8
0
100
AcDbCircle
10
9.6674153999999941
20
-15.09099999999993
30
0
40
1.7000000000000002
210
0
220
-0
230
1
0
CIRCLE
5
105
100
AcDbEntity
8
0
100
AcDbCircle
10
-69.163834599999987
20
119.73400000000007
30
0
40
1.7000000000000002
210
0
220
-0
230
1
0
CIRCLE
5
106
100
AcDbEntity
8
0
100
AcDbCircle
10
-226.82633459999994
20
119.73400000000007
30
0
40
1.7000000000000002
210
0
220
-0
230
1
0
CIRCLE
5
107
100
AcDbEntity
8
0
100
AcDbCircle
10
-305.65758459999995
20
119.73400000000007
30
0
40
1.7000000000000002
210
0
220
-0
230
1
0
CIRCLE
5
108
100
AcDbEntity
8
0
100
AcDbCircle
10
-147.99508459999998
20
119.73400000000007
30
0
40
1.7000000000000002
210
0
220
-0
230
1
0
CIRCLE
5
109
100
AcDbEntity
8
0
100
AcDbCircle
10
9.6674153999999941
20
119.73400000000007
30
0
40
1.7000000000000002
210
0
220
-0
230
1
0
CIRCLE
5
110
100
AcDbEntity
8
0
100
AcDbCircle
10
-69.163834599999987
20
-15.09099999999993
30
0
40
1.7000000000000002
210
0
220
-0
230
1
0
CIRCLE
5
111
100
AcDbEntity
8
0
100
AcDbCircle
10
-226.82633459999994
20
-15.09099999999993
30
0
40
1.7000000000000002
210
0
220
-0
230
1
0
LWPOLYLINE
5
112
100
AcDbEntity
8
0
100
AcDbPolyline
90
77
70
1
43
0.0
10
10.167899999999989
20
-9.0919999999999668
42
-0.41421356237307921
10
8.6678999999999959
20
-10.591999999999935
10
1.057889555656143
20
-10.591999999997803
42
0.40355805679874562
10
-1.8325845850988793
20
-13.590000000000114
42
-0.78011263680424492
10
-11.240460853918995
20
-15.950217591483799
42
-0.04350681860733531
10
-11.81149999999996
20
-16.000000014901158
10
-26.811499999999953
20
-16.000000014901158
42
-0.4142135623730952
10
-30.111500014901114
20
-12.699999999999996
10
-30.111500014901118
20
-10.591999999998016
10
-39.274253301495044
20
-10.591999999998087
42
0.40355805679794415
10
-42.164727442241734
20
-13.590000000000089
42
-0.99999999999999989
10
-52.164727472044063
20
-13.590000000000089
42
0.40355805679762996
10
-55.055201612787563
20
-10.591999999998194
10
-79.606396158645666
20
-10.591999999998372
42
0.40355805679718043
10
-82.496870299384597
20
-13.590000000000071
42
-0.99999999999999989
10
-92.496870329186933
20
-13.590000000000071
42
0.40355805679684964
10
-95.387344469922368
20
-10.59199999999848
10
-119.93853901579682
20
-10.591999999998656
42
0.40355805679638118
10
-122.82901315652745
20
-13.590000000000089
42
-0.99999999999999989
10
-132.82901318632977
20
-13.590000000000071
42
0.40355805679609175
10
-135.71948732705741
20
-10.591999999998766
10
-160.27068187294799
20
-10.59199999999894
42
0.40355805679558016
10
-163.16115601367031
20
-13.590000000000089
42
-0.99999999999999989
10
-173.16115604347266
20
-13.590000000000053
42
0.40355805679533524
10
-176.05163018419239
20
-10.591999999999054
10
-200.60282473009863
20
-10.591999999999224
42
0.40355805679482565
10
-203.49329887081319
20
-13.590000000000089
42
-0.99999999999999989
10
-213.49329890061554
20
-13.590000000000053
42
0.40355805679453433
10
-216.383773041327
20
-10.591999999999338
10
-240.93496758724982
20
-10.591999999999508
42
0.40355805679401602
10
-243.82544172795605
20
-13.590000000000035
42
-0.99999999999999989
10
-253.82544175775834
20
-13.590000000000035
42
0.40355805679367496
10
-256.71591589846105
20
-10.591999999999624
10
-281.267110444401
20
-10.591999999999793
42
0.40355805679320994
10
-284.1575845850989
20
-13.590000000000018
42
-0.99999999999999989
10
-294.15758461490122
20
-13.590000000000018
42
0.40355805679282408
10
-297.04805875559515
20
-10.591999999999926
10
-304.6585
20
-10.591999999999992
42
-0.4142135623730786
10
-306.15850000000006
20
-9.0919999999999135
10
-306.1585
20
113.73440000000009
42
-0.21172270006916882
10
-305.66574875064163
20
114.84590796413302
42
-0.18639734560371438
10
-304.65750000000003
20
115.23530701490117
10
-297.15758460000001
20
115.23530701490115
42
0.41421356237310719
10
-294.15758461490122
20
118.23530700000003
42
-0.99999999999999989
10
-284.15758458509885
20
118.23530699999999
42
0.41421356237309681
10
-281.15758460000001
20
115.23530701490115
10
-256.82544174285715
20
115.23530701490114
42
0.41421356237310542
10
-253.82544175775834
20
118.23530700000001
42
-0.99999999999999989
10
-243.82544172795599
20
118.23530699999998
42
0.41421356237309509
10
-240.82544174285715
20
115.23530701490115
10
-216.49329888571432
20
115.23530701490114
42
0.41421356237309681
10
-213.49329890061551
20
118.23530699999992
42
-0.99999999999999989
10
-203.49329887081313
20
118.23530699999995
42
0.41421356237309509
10
-200.49329888571432
20
115.23530701490114
10
-176.16115602857147
20
115.23530701490111
42
0.41421356237309853
10
-173.16115604347263
20
118.23530699999992
42
-0.99999999999999989
10
-163.16115601367028
20
118.23530699999995
42
0.41421356237309681
10
-160.16115602857144
20
115.23530701490111
10
-135.82901317142858
20
115.2353070149011
42
0.41421356237309681
10
-132.82901318632977
20
118.23530699999993
42
-0.99999999999999989
10
-122.8290131565274
20
118.23530699999993
42
0.41421356237309681
10
-119.82901317142856
20
115.23530701490111
10
-95.496870314285729
20
115.2353070149011
42
0.41421356237309681
10
-92.496870329186919
20
118.23530699999993
42
-0.99999999999999989
10
-82.496870299384554
20
118.23530699999993
42
0.4142135623730977
10
-79.496870314285715
20
115.2353070149011
10
-55.16472745714286
20
115.23530701490108
42
0.41421356237309853
10
-52.164727472044028
20
118.23530699999992
42
-0.99999999999999989
10
-42.164727442241698
20
118.23530699999992
42
0.41421356237309198
10
-39.164727457142881
20
115.23530701490105
10
-14.832584600000001
20
115.23530701490108
42
0.41421356237309681
10
-11.832584614901176
20
118.23530699999991
42
-0.99999999999999989
10
-1.8325845850988376
20
118.23530699999991
42
0.41421356237309404
10
1.1674153999999959
20
115.23530701490105
10
8.6674153999999941
20
115.23530701490105
42
-0.27687996747450067
10
9.9906720017944934
20
114.44170066539533
42
-0.12337767595216882
10
10.167899999999989
20
113.73440000000008
0
LWPOLYLINE
5
113
100
AcDbEntity
8
0
100
AcDbPolyline
90
8
70
1
43
0.0
10
-307.15750000000003
20
124.23481900000007
10
11.167415400000031
20
124.2348190000001
42
-0.41421356237309226
10
14.167415400000005
20
121.23481900000009
10
14.167415400000001
20
-16.590999999999916
42
-0.41421356237309132
10
11.167415399999996
20
-19.590999999999923
10
-307.15750000000003
20
-19.590999999999905
42
-0.4142135623731002
10
-310.15750000000003
20
-16.590999999999916
10
-310.15750000000003
20
121.23481900000009
42
-0.41421356237309331
0
CIRCLE
5
114
100
AcDbEntity
8
0
100
AcDbCircle
10
-305.65758459999995
20
-15.09099999999993
30
0
40
1.7000000000000171
210
0
220
0
230
1
0
CIRCLE
5
115
100
AcDbEntity
8
0
100
AcDbCircle
10
-226.82633459999994
20
-15.09099999999993
30
0
40
1.7000000000000173
210
0
220
0
230
1
0
CIRCLE
5
116
100
AcDbEntity
8
0
100
AcDbCircle
10
-147.99508459999998
20
-15.09099999999993
30
0
40
1.6999999999999966
210
0
220
0
230
1
0
CIRCLE
5
117
100
AcDbEntity
8
0
100
AcDbCircle
10
-69.163834599999987
20
-15.09099999999993
30
0
40
1.6999999999999984
210
0
220
0
230
1
0
CIRCLE
5
118
100
AcDbEntity
8
0
100
AcDbCircle
10
9.6674153999999941
20
-15.09099999999993
30
0
40
1.7000000000000004
210
0
220
0
230
1
0
CIRCLE
5
119
100
AcDbEntity
8
0
100
AcDbCircle
10
9.6674153999999941
20
119.73400000000007
30
0
40
1.7000000000000057
210
0
220
0
230
1
0
CIRCLE
5
120
100
AcDbEntity
8
0
100
AcDbCircle
10
-69.163834599999987
20
119.73400000000007
30
0
40
1.7000000000000079
210
0
220
0
230
1
0
CIRCLE
5
121
100
AcDbEntity
8
0
100
AcDbCircle
10
-147.99508459999998
20
119.73400000000007
30
0
40
1.7000000000000028
210
0
220
0
230
1
0
CIRCLE
5
122
100
AcDbEntity
8
0
100
AcDbCircle
10
-226.82633459999994
20
119.73400000000007
30
0
40
1.6999999999999993
210
0
220
0
230
1
0
CIRCLE
5
123
100
AcDbEntity
8
0
100
AcDbCircle
10
-305.65758459999995
20
119.73400000000007
30
0
40
1.7000000000000048
210
0
220
0
230
1
0
ENDSEC
0
SECTION
2
OBJECTS
0
DICTIONARY
5
C
100
AcDbDictionary
3
ACAD_GROUP
350
D
3
ACAD_MLINESTYLE
350
17
0
DICTIONARY
5
D
100
AcDbDictionary
0
DICTIONARY
5
1A
330
C
100
AcDbDictionary
0
DICTIONARY
5
17
100
AcDbDictionary
0
ENDSEC
0
EOF
