0
SECTION
2
HEADER
9
$INSUNITS
70
4
9
$ACADVER
1
AC1014
9
$HANDSEED
5
FFFF
0
ENDSEC
0
SECTION
2
TABLES
0
TABLE
2
VPORT
5
8
100
AcDbSymbolTable
0
ENDTAB
0
TABLE
2
LTYPE
5
5
100
AcDbSymbolTable
0
LTYPE
5
14
100
AcDbSymbolTableRecord
100
AcDbLinetypeTableRecord
2
BYBLOCK
70
0
0
LTYPE
5
15
100
AcDbSymbolTableRecord
100
AcDbLinetypeTableRecord
2
BYLAYER
70
0
0
ENDTAB
0
TABLE
2
LAYER
5
2
100
AcDbSymbolTable
70
2
0
LAYER
5
50
100
AcDbSymbolTableRecord
100
AcDbLayerTableRecord
2
0
70
0
6
CONTINUOUS
0
ENDTAB
0
TABLE
2
STYLE
5
3
100
AcDbSymbolTable
70
1
0
STYLE
5
11
100
AcDbSymbolTableRecord
100
AcDbTextStyleTableRecord
2
STANDARD
70
0
0
ENDTAB
0
TABLE
2
VIEW
5
6
100
AcDbSymbolTable
70
0
0
ENDTAB
0
TABLE
2
UCS
5
7
100
AcDbSymbolTable
70
0
0
ENDTAB
0
TABLE
2
APPID
5
9
100
AcDbSymbolTable
70
2
0
APPID
5
12
100
AcDbSymbolTableRecord
100
AcDbRegAppTableRecord
2
ACAD
70
0
0
ENDTAB
0
TABLE
2
DIMSTYLE
5
A
100
AcDbSymbolTable
70
1
0
ENDTAB
0
TABLE
2
BLOCK_RECORD
5
1
100
AcDbSymbolTable
70
1
0
BLOCK_RECORD
5
1F
100
AcDbSymbolTableRecord
100
AcDbBlockTableRecord
2
*MODEL_SPACE
0
BLOCK_RECORD
5
1B
100
AcDbSymbolTableRecord
100
AcDbBlockTableRecord
2
*PAPER_SPACE
0
ENDTAB
0
ENDSEC
0
SECTION
2
BLOCKS
0
BLOCK
5
20
100
AcDbEntity
100
AcDbBlockBegin
2
*MODEL_SPACE
0
ENDBLK
5
21
100
AcDbEntity
100
AcDbBlockEnd
0
BLOCK
5
1C
100
AcDbEntity
100
AcDbBlockBegin
2
*PAPER_SPACE
0
ENDBLK
5
1D
100
AcDbEntity
100
AcDbBlockEnd
0
ENDSEC
0
SECTION
2
ENTITIES
0
CIRCLE
5
100
100
AcDbEntity
8
0
100
AcDbCircle
10
16.095084600000003
20
128.08269300000001
30
0
40
4.000000000000008
210
0
220
0
230
1
0
CIRCLE
5
101
100
AcDbEntity
8
0
100
AcDbCircle
10
16.095084600000003
20
128.08269300000001
30
0
40
1.7000000000000002
210
0
220
0
230
1
0
LINE
5
102
100
AcDbEntity
8
0
100
AcDbLine
10
16.095084600000003
20
128.08269300000001
30
0
11
16.095084600000003
21
124.08269300000001
31
0
0
LINE
5
103
100
AcDbEntity
8
0
100
AcDbLine
10
16.095084600000003
20
124.08269300000001
30
0
11
8.0950845999999999
21
124.08269300000001
31
0
0
ARC
5
104
100
AcDbEntity
8
0
100
AcDbCircle
10
8.0950845999999927
20
128.08269300000001
30
0
40
4.0000000000000036
210
0
220
0
230
1
100
AcDbArc
50
-89.999999999999901
51
0
0
LINE
5
105
100
AcDbEntity
8
0
100
AcDbLine
10
16.095084600000003
20
124.08269300000001
30
0
11
24.095084599999996
21
124.08269300000001
31
0
0
ARC
5
106
100
AcDbEntity
8
0
100
AcDbCircle
10
24.095084599999993
20
128.08269300000001
30
0
40
3.9999999999999813
210
0
220
0
230
1
100
AcDbArc
50
180
51
270.00000000000006
0
CIRCLE
5
107
100
AcDbEntity
8
0
100
AcDbCircle
10
56.427227457142862
20
128.08269300000001
30
0
40
4.000000000000008
210
0
220
0
230
1
0
CIRCLE
5
108
100
AcDbEntity
8
0
100
AcDbCircle
10
56.427227457142862
20
128.08269300000001
30
0
40
1.7000000000000002
210
0
220
0
230
1
0
ARC
5
109
100
AcDbEntity
8
0
100
AcDbCircle
10
64.427227457142848
20
128.08269300000001
30
0
40
3.9999999999999769
210
0
220
0
230
1
100
AcDbArc
50
180
51
270.00000000000023
0
ARC
5
110
100
AcDbEntity
8
0
100
AcDbCircle
10
48.427227457142848
20
128.08269300000001
30
0
40
4.0000000000000036
210
0
220
0
230
1
100
AcDbArc
50
-89.999999999999801
51
0
0
CIRCLE
5
111
100
AcDbEntity
8
0
100
AcDbCircle
10
96.759370314285732
20
128.08269300000001
30
0
40
4.000000000000008
210
0
220
0
230
1
0
CIRCLE
5
112
100
AcDbEntity
8
0
100
AcDbCircle
10
96.759370314285732
20
128.08269300000001
30
0
40
1.7000000000000002
210
0
220
0
230
1
0
ARC
5
113
100
AcDbEntity
8
0
100
AcDbCircle
10
104.75937031428572
20
128.08269300000001
30
0
40
3.9999999999999858
210
0
220
0
230
1
100
AcDbArc
50
180
51
270
0
ARC
5
114
100
AcDbEntity
8
0
100
AcDbCircle
10
88.759370314285718
20
128.08269300000001
30
0
40
4.0000000000000036
210
0
220
0
230
1
100
AcDbArc
50
-90
51
0
0
CIRCLE
5
115
100
AcDbEntity
8
0
100
AcDbCircle
10
137.09151317142857
20
128.08269300000001
30
0
40
4.000000000000008
210
0
220
0
230
1
0
CIRCLE
5
116
100
AcDbEntity
8
0
100
AcDbCircle
10
137.09151317142857
20
128.08269300000001
30
0
40
1.7000000000000002
210
0
220
0
230
1
0
ARC
5
117
100
AcDbEntity
8
0
100
AcDbCircle
10
145.09151317142857
20
128.08269300000001
30
0
40
3.9999999999999858
210
0
220
0
230
1
100
AcDbArc
50
180
51
270
0
ARC
5
118
100
AcDbEntity
8
0
100
AcDbCircle
10
129.09151317142857
20
128.08269300000001
30
0
40
4.0000000000000036
210
0
220
0
230
1
100
AcDbArc
50
-90
51
0
0
CIRCLE
5
119
100
AcDbEntity
8
0
100
AcDbCircle
10
177.42365602857146
20
128.08269300000001
30
0
40
4.000000000000008
210
0
220
0
230
1
0
CIRCLE
5
120
100
AcDbEntity
8
0
100
AcDbCircle
10
177.42365602857146
20
128.08269300000001
30
0
40
1.7000000000000002
210
0
220
0
230
1
0
ARC
5
121
100
AcDbEntity
8
0
100
AcDbCircle
10
185.42365602857143
20
128.08269300000001
30
0
40
3.9999999999999503
210
0
220
0
230
1
100
AcDbArc
50
180
51
270.0000000000004
0
ARC
5
122
100
AcDbEntity
8
0
100
AcDbCircle
10
169.42365602857143
20
128.08269300000001
30
0
40
4.0000000000000036
210
0
220
0
230
1
100
AcDbArc
50
-90
51
0
0
CIRCLE
5
123
100
AcDbEntity
8
0
100
AcDbCircle
10
217.75579888571431
20
128.08269300000001
30
0
40
4.000000000000008
210
0
220
0
230
1
0
CIRCLE
5
124
100
AcDbEntity
8
0
100
AcDbCircle
10
217.75579888571431
20
128.08269300000001
30
0
40
1.7000000000000002
210
0
220
0
230
1
0
ARC
5
125
100
AcDbEntity
8
0
100
AcDbCircle
10
225.75579888571428
20
128.08269300000001
30
0
40
3.9999999999999503
210
0
220
0
230
1
100
AcDbArc
50
180
51
270.0000000000008
0
ARC
5
126
100
AcDbEntity
8
0
100
AcDbCircle
10
209.75579888571431
20
128.08269300000001
30
0
40
4.0000000000000036
210
0
220
0
230
1
100
AcDbArc
50
-90
51
0
0
CIRCLE
5
127
100
AcDbEntity
8
0
100
AcDbCircle
10
258.08794174285714
20
128.08269300000001
30
0
40
4.000000000000008
210
0
220
0
230
1
0
CIRCLE
5
128
100
AcDbEntity
8
0
100
AcDbCircle
10
258.08794174285714
20
128.08269300000001
30
0
40
1.7000000000000002
210
0
220
0
230
1
0
ARC
5
129
100
AcDbEntity
8
0
100
AcDbCircle
10
266.08794174285714
20
128.08269300000001
30
0
40
3.9999999999999858
210
0
220
0
230
1
100
AcDbArc
50
180
51
270
0
ARC
5
130
100
AcDbEntity
8
0
100
AcDbCircle
10
250.08794174285714
20
128.08269300000001
30
0
40
4.0000000000000036
210
0
220
0
230
1
100
AcDbArc
50
-90
51
0
0
CIRCLE
5
131
100
AcDbEntity
8
0
100
AcDbCircle
10
298.4200846
20
128.08269300000001
30
0
40
4.000000000000008
210
0
220
0
230
1
0
CIRCLE
5
132
100
AcDbEntity
8
0
100
AcDbCircle
10
298.4200846
20
128.08269300000001
30
0
40
1.7000000000000002
210
0
220
0
230
1
0
ARC
5
133
100
AcDbEntity
8
0
100
AcDbCircle
10
306.4200846
20
128.08269300000001
30
0
40
3.9999999999999858
210
0
220
0
230
1
100
AcDbArc
50
180
51
270.0000000000008
0
ARC
5
134
100
AcDbEntity
8
0
100
AcDbCircle
10
290.4200846
20
128.08269300000001
30
0
40
4.0000000000000036
210
0
220
0
230
1
100
AcDbArc
50
-90
51
0
0
ARC
5
135
100
AcDbEntity
8
0
100
AcDbCircle
10
209.75579888571431
20
-3.7423070000000003
30
0
40
3.9999999999999858
210
0
220
0
230
1
100
AcDbArc
50
0
51
90
0
CIRCLE
5
136
100
AcDbEntity
8
0
100
AcDbCircle
10
16.0950846
20
-3.7423070000000003
30
0
40
1.7000000000000002
210
0
220
0
230
1
0
ARC
5
137
100
AcDbEntity
8
0
100
AcDbCircle
10
266.08794174285714
20
-3.7423069999999825
30
0
40
3.9999999999999858
210
0
220
-0
230
1
100
AcDbArc
50
90
51
180
0
ARC
5
138
100
AcDbEntity
8
0
100
AcDbCircle
10
64.427227457142848
20
-3.7423069999999825
30
0
40
3.9999999999999858
210
0
220
-0
230
1
100
AcDbArc
50
89.999999999999801
51
180
0
ARC
5
139
100
AcDbEntity
8
0
100
AcDbCircle
10
290.4200846
20
-3.7423070000000003
30
0
40
3.9999999999999858
210
0
220
0
230
1
100
AcDbArc
50
0
51
90
0
ARC
5
140
100
AcDbEntity
8
0
100
AcDbCircle
10
8.0950845999999927
20
-3.7423070000000003
30
0
40
3.9999999999999991
210
0
220
0
230
1
100
AcDbArc
50
0
51
89.999999999999901
0
CIRCLE
5
141
100
AcDbEntity
8
0
100
AcDbCircle
10
298.4200846
20
-3.7423070000000003
30
0
40
4.000000000000008
210
0
220
0
230
1
0
CIRCLE
5
142
100
AcDbEntity
8
0
100
AcDbCircle
10
96.759370314285732
20
-3.7423070000000003
30
0
40
4.000000000000008
210
0
220
0
230
1
0
ARC
5
143
100
AcDbEntity
8
0
100
AcDbCircle
10
185.42365602857143
20
-3.7423069999999825
30
0
40
3.9999999999999858
210
0
220
-0
230
1
100
AcDbArc
50
89.999999999999588
51
180
0
ARC
5
144
100
AcDbEntity
8
0
100
AcDbCircle
10
104.75937031428572
20
-3.7423069999999825
30
0
40
3.9999999999999858
210
0
220
-0
230
1
100
AcDbArc
50
90
51
180
0
CIRCLE
5
145
100
AcDbEntity
8
0
100
AcDbCircle
10
217.75579888571431
20
-3.7423070000000003
30
0
40
1.7000000000000002
210
0
220
0
230
1
0
CIRCLE
5
146
100
AcDbEntity
8
0
100
AcDbCircle
10
137.09151317142857
20
-3.7423070000000003
30
0
40
1.7000000000000002
210
0
220
0
230
1
0
CIRCLE
5
147
100
AcDbEntity
8
0
100
AcDbCircle
10
96.759370314285732
20
-3.7423070000000003
30
0
40
1.7000000000000002
210
0
220
0
230
1
0
ARC
5
148
100
AcDbEntity
8
0
100
AcDbCircle
10
306.4200846
20
-3.7423069999999825
30
0
40
3.9999999999999858
210
0
220
-0
230
1
100
AcDbArc
50
89.99999999999919
51
180
0
ARC
5
149
100
AcDbEntity
8
0
100
AcDbCircle
10
129.09151317142857
20
-3.7423070000000003
30
0
40
3.9999999999999858
210
0
220
0
230
1
100
AcDbArc
50
0
51
90
0
CIRCLE
5
150
100
AcDbEntity
8
0
100
AcDbCircle
10
56.427227457142862
20
-3.7423070000000003
30
0
40
4.000000000000008
210
0
220
0
230
1
0
CIRCLE
5
151
100
AcDbEntity
8
0
100
AcDbCircle
10
177.42365602857146
20
-3.7423070000000003
30
0
40
1.7000000000000002
210
0
220
0
230
1
0
CIRCLE
5
152
100
AcDbEntity
8
0
100
AcDbCircle
10
177.42365602857146
20
-3.7423070000000003
30
0
40
4.000000000000008
210
0
220
0
230
1
0
CIRCLE
5
153
100
AcDbEntity
8
0
100
AcDbCircle
10
16.0950846
20
-3.7423070000000003
30
0
40
4.000000000000008
210
0
220
0
230
1
0
ARC
5
154
100
AcDbEntity
8
0
100
AcDbCircle
10
145.09151317142857
20
-3.7423069999999825
30
0
40
3.9999999999999858
210
0
220
-0
230
1
100
AcDbArc
50
90
51
180
0
ARC
5
155
100
AcDbEntity
8
0
100
AcDbCircle
10
88.759370314285718
20
-3.7423070000000003
30
0
40
3.9999999999999858
210
0
220
0
230
1
100
AcDbArc
50
0
51
90
0
ARC
5
156
100
AcDbEntity
8
0
100
AcDbCircle
10
48.427227457142848
20
-3.7423070000000003
30
0
40
4.0000000000000036
210
0
220
0
230
1
100
AcDbArc
50
0
51
89.999999999999801
0
CIRCLE
5
157
100
AcDbEntity
8
0
100
AcDbCircle
10
137.09151317142857
20
-3.7423070000000003
30
0
40
4.000000000000008
210
0
220
0
230
1
0
CIRCLE
5
158
100
AcDbEntity
8
0
100
AcDbCircle
10
56.427227457142862
20
-3.7423070000000003
30
0
40
1.7000000000000002
210
0
220
0
230
1
0
ARC
5
159
100
AcDbEntity
8
0
100
AcDbCircle
10
225.75579888571428
20
-3.7423069999999825
30
0
40
3.9999999999999858
210
0
220
-0
230
1
100
AcDbArc
50
89.99999999999919
51
180
0
ARC
5
160
100
AcDbEntity
8
0
100
AcDbCircle
10
24.095084599999993
20
-3.7423069999999825
30
0
40
3.9999999999999858
210
0
220
-0
230
1
100
AcDbArc
50
89.999999999999901
51
180
0
CIRCLE
5
161
100
AcDbEntity
8
0
100
AcDbCircle
10
298.4200846
20
-3.7423070000000003
30
0
40
1.7000000000000002
210
0
220
0
230
1
0
ARC
5
162
100
AcDbEntity
8
0
100
AcDbCircle
10
169.42365602857143
20
-3.7423070000000003
30
0
40
3.9999999999999858
210
0
220
0
230
1
100
AcDbArc
50
0
51
90
0
CIRCLE
5
163
100
AcDbEntity
8
0
100
AcDbCircle
10
258.08794174285714
20
-3.7423070000000003
30
0
40
4.000000000000008
210
0
220
0
230
1
0
CIRCLE
5
164
100
AcDbEntity
8
0
100
AcDbCircle
10
217.75579888571431
20
-3.7423070000000003
30
0
40
4.000000000000008
210
0
220
0
230
1
0
CIRCLE
5
165
100
AcDbEntity
8
0
100
AcDbCircle
10
258.08794174285714
20
-3.7423070000000003
30
0
40
1.7000000000000002
210
0
220
0
230
1
0
ARC
5
166
100
AcDbEntity
8
0
100
AcDbCircle
10
250.08794174285714
20
-3.7423070000000003
30
0
40
3.9999999999999858
210
0
220
0
230
1
100
AcDbArc
50
0
51
90
0
LWPOLYLINE
5
167
100
AcDbEntity
8
0
100
AcDbPolyline
90
8
70
1
43
0.0
10
263.67500000000001
20
107.557693
10
250.67500000000001
20
107.557693
42
-0.41421356237309509
10
250.17500000000001
20
108.05769300000001
10
250.17500000000001
20
121.057693
42
-0.41421356237309509
10
250.67500000000001
20
121.55769300000001
10
263.67500000000001
20
121.55769300000001
42
-0.41421356237309509
10
264.17500000000007
20
121.057693
10
264.17500000000007
20
108.057693
42
-0.41421356237308465
0
LWPOLYLINE
5
168
100
AcDbEntity
8
0
100
AcDbPolyline
90
8
70
1
43
0.0
10
198.28749999999999
20
26.595192999999995
42
-0.41421356237309509
10
197.78749999999999
20
27.095193000000002
10
197.78749999999999
20
40.095193000000009
42
-0.41421356237309509
10
198.28749999999999
20
40.595192999999995
10
211.28749999999999
20
40.595193000000016
42
-0.41421356237309509
10
211.78750000000002
20
40.095193000000009
10
211.78750000000002
20
27.095193000000002
42
-0.41421356237309509
10
211.28749999999999
20
26.595193000000002
0
LWPOLYLINE
5
169
100
AcDbEntity
8
0
100
AcDbPolyline
90
8
70
1
43
0.0
10
173.1875
20
40.595193000000016
42
-0.41421356237309509
10
173.68750000000003
20
40.095193000000009
10
173.68750000000003
20
27.095193000000002
42
-0.41421356237309509
10
173.1875
20
26.595193000000002
10
160.1875
20
26.595192999999995
42
-0.41421356237309509
10
159.6875
20
27.095193000000002
10
159.6875
20
40.095193000000009
42
-0.41421356237309509
10
160.1875
20
40.595193000000009
0
LWPOLYLINE
5
170
100
AcDbEntity
8
0
100
AcDbPolyline
90
8
70
1
43
0.0
10
243.03125
20
27.095193000000002
10
243.03125
20
40.095193000000009
42
-0.41421356237309509
10
243.53125000000003
20
40.595193000000009
10
256.53125
20
40.595193000000016
42
-0.41421356237309509
10
257.03125000000006
20
40.095193000000009
10
257.03125000000006
20
27.095193000000002
42
-0.41421356237309509
10
256.53125
20
26.595193000000002
10
243.53125000000003
20
26.595192999999995
42
-0.41421356237309509
0
LWPOLYLINE
5
171
100
AcDbEntity
8
0
100
AcDbPolyline
90
8
70
1
43
0.0
10
262.63125000000002
20
27.095193000000002
10
262.63125000000008
20
40.095193000000009
42
0.41421356237309509
10
262.13125000000002
20
40.595192999999995
10
261.13125000000002
20
40.595193000000009
42
0.41421356237309509
10
260.63125000000002
20
40.095193000000009
10
260.63125000000002
20
27.095193000000002
42
0.41421356237309509
10
261.13125000000002
20
26.595192999999995
10
262.13125000000002
20
26.595193000000002
42
0.41421356237309509
0
LWPOLYLINE
5
172
100
AcDbEntity
8
0
100
AcDbPolyline
90
8
70
1
43
0.0
10
230.33750000000001
20
26.595192999999995
10
217.33750000000001
20
26.595192999999995
42
-0.41421356237309509
10
216.83750000000003
20
27.095193000000002
10
216.83750000000001
20
40.095193000000009
42
-0.41421356237309509
10
217.33750000000001
20
40.595193000000009
10
230.33750000000001
20
40.595193000000016
42
-0.41421356237309509
10
230.83750000000003
20
40.095193000000009
10
230.83750000000003
20
27.095193000000002
42
-0.41421356237309509
0
LWPOLYLINE
5
173
100
AcDbEntity
8
0
100
AcDbPolyline
90
8
70
1
43
0.0
10
192.23750000000001
20
40.595192999999995
10
179.23750000000001
20
40.595193000000009
42
0.41421356237309509
10
178.73750000000001
20
40.095193000000009
10
178.73750000000001
20
27.095193000000002
42
0.41421356237309509
10
179.23750000000001
20
26.595193000000002
10
192.23750000000001
20
26.595193000000002
42
0.41421356237309509
10
192.73750000000004
20
27.095193000000002
10
192.73750000000004
20
40.095193000000009
42
0.41421356237309509
0
LWPOLYLINE
5
174
100
AcDbEntity
8
0
100
AcDbPolyline
90
8
70
1
43
0.0
10
116.82500000000002
20
84.245193
10
116.82500000000002
20
97.245193
42
-0.41421356237309509
10
117.32500000000002
20
97.745193000000015
10
130.32499999999999
20
97.745193000000015
42
-0.41421356237309509
10
130.82499999999999
20
97.245193
10
130.82499999999999
20
84.245193
42
-0.41421356237309509
10
130.32499999999999
20
83.745193
10
117.32500000000002
20
83.745193
42
-0.41421356237309509
0
LWPOLYLINE
5
175
100
AcDbEntity
8
0
100
AcDbPolyline
90
8
70
1
43
0.0
10
244.62500000000003
20
121.55769300000001
10
231.625
20
121.55769300000001
42
0.41421356237309509
10
231.125
20
121.057693
10
231.125
20
108.057693
42
0.41421356237308465
10
231.625
20
107.557693
10
244.62500000000003
20
107.557693
42
0.41421356237308465
10
245.12500000000003
20
108.057693
10
245.12500000000003
20
121.057693
42
0.41421356237309509
0
LWPOLYLINE
5
176
100
AcDbEntity
8
0
100
AcDbPolyline
90
8
70
1
43
0.0
10
92.725000000000009
20
84.245193
42
-0.41421356237309509
10
92.224999999999994
20
83.745193
10
79.224999999999994
20
83.745193
42
-0.41421356237309509
10
78.724999999999994
20
84.245193
10
78.724999999999994
20
97.245193
42
-0.41421356237309509
10
79.224999999999994
20
97.745193000000015
10
92.224999999999994
20
97.745193000000015
42
-0.41421356237309509
10
92.724999999999994
20
97.245193
0
LWPOLYLINE
5
177
100
AcDbEntity
8
0
100
AcDbPolyline
90
8
70
1
43
0.0
10
197.5
20
108.057693
10
197.50000000000003
20
121.057693
42
0.41421356237309509
10
197.00000000000003
20
121.55769300000001
10
184.00000000000003
20
121.55769300000001
42
0.41421356237309509
10
183.5
20
121.057693
10
183.5
20
108.05769300000001
42
0.41421356237309509
10
184.00000000000003
20
107.557693
10
197.00000000000003
20
107.557693
42
0.41421356237308465
0
LWPOLYLINE
5
178
100
AcDbEntity
8
0
100
AcDbPolyline
90
8
70
1
43
0.0
10
73.675000000000011
20
84.245193
42
-0.41421356237309509
10
73.174999999999997
20
83.745193
10
60.174999999999997
20
83.745193
42
-0.41421356237309509
10
59.675000000000004
20
84.245193
10
59.674999999999997
20
97.245193
42
-0.41421356237309509
10
60.174999999999997
20
97.745193000000015
10
73.174999999999997
20
97.745193000000015
42
-0.41421356237309509
10
73.674999999999997
20
97.245193
0
LWPOLYLINE
5
179
100
AcDbEntity
8
0
100
AcDbPolyline
90
8
70
1
43
0.0
10
226.07500000000002
20
108.057693
10
226.07500000000002
20
121.057693
42
0.41421356237309509
10
225.57500000000002
20
121.55769300000001
10
212.57499999999999
20
121.55769300000001
42
0.41421356237309509
10
212.07499999999999
20
121.057693
10
212.07499999999999
20
108.057693
42
0.41421356237308465
10
212.57499999999999
20
107.557693
10
225.57500000000002
20
107.557693
42
0.41421356237308465
0
LWPOLYLINE
5
180
100
AcDbEntity
8
0
100
AcDbPolyline
90
8
70
1
43
0.0
10
111.27500000000001
20
83.745193
10
98.275000000000006
20
83.745193
42
-0.41421356237309509
10
97.77500000000002
20
84.245193
10
97.775000000000006
20
97.245193
42
-0.41421356237309509
10
98.275000000000006
20
97.745193000000015
10
111.27500000000001
20
97.745193000000015
42
-0.41421356237309509
10
111.77500000000002
20
97.245193
10
111.77500000000002
20
84.245193
42
-0.41421356237309509
0
LWPOLYLINE
5
181
100
AcDbEntity
8
0
100
AcDbPolyline
90
8
70
1
43
0.0
10
183.21250000000003
20
46.145193000000006
42
-0.41421356237309509
10
182.71250000000003
20
45.645193000000006
10
169.71250000000001
20
45.645192999999999
42
-0.41421356237309509
10
169.21250000000001
20
46.145193000000006
10
169.21250000000001
20
59.145193000000006
42
-0.41421356237309509
10
169.71250000000001
20
59.645192999999999
10
182.71250000000003
20
59.645193000000006
42
-0.41421356237309509
10
183.21250000000003
20
59.145193000000006
0
LWPOLYLINE
5
182
100
AcDbEntity
8
0
100
AcDbPolyline
90
8
70
1
43
0.0
10
247.06874999999999
20
46.145193000000006
42
-0.41421356237309509
10
246.56874999999999
20
45.645193000000006
10
245.56875000000002
20
45.645192999999999
42
-0.41421356237309509
10
245.06875000000002
20
46.145193000000006
10
245.06875000000002
20
59.145193000000006
42
-0.41421356237309509
10
245.56875000000002
20
59.645192999999999
10
246.56874999999999
20
59.645193000000006
42
-0.41421356237309509
10
247.06874999999999
20
59.145193000000006
0
LWPOLYLINE
5
183
100
AcDbEntity
8
0
100
AcDbPolyline
90
8
70
1
43
0.0
10
107.01250000000002
20
46.145193000000006
42
-0.41421356237309509
10
106.51250000000002
20
45.645193000000006
10
93.512500000000003
20
45.645192999999999
42
-0.41421356237309509
10
93.012499999999989
20
46.145193000000006
10
93.012499999999989
20
59.145193000000006
42
-0.41421356237309509
10
93.512500000000003
20
59.645192999999999
10
106.51250000000002
20
59.645193000000006
42
-0.41421356237309509
10
107.01250000000002
20
59.145193000000006
0
LWPOLYLINE
5
184
100
AcDbEntity
8
0
100
AcDbPolyline
90
8
70
1
43
0.0
10
207.3125
20
59.145193000000006
42
-0.41421356237309509
10
207.8125
20
59.645192999999999
10
220.8125
20
59.645193000000006
42
-0.41421356237309509
10
221.3125
20
59.145193000000006
10
221.3125
20
46.145193000000006
42
-0.41421356237309509
10
220.8125
20
45.645193000000006
10
207.8125
20
45.645192999999999
42
-0.41421356237309509
10
207.3125
20
46.145193000000006
0
LWPOLYLINE
5
185
100
AcDbEntity
8
0
100
AcDbPolyline
90
8
70
1
43
0.0
10
279.13175000000001
20
58.645193000000006
10
273.38175000000001
20
58.645193000000006
42
0.41421356237309509
10
272.88175000000001
20
58.145193000000006
10
272.88175000000001
20
45.145192999999999
42
0.41421356237309509
10
273.38175000000001
20
44.645192999999999
10
279.13175000000001
20
44.645192999999999
42
0.41421356237309509
10
279.63175000000001
20
45.145192999999999
10
279.63175000000001
20
58.145193000000006
42
0.41421356237309509
0
LWPOLYLINE
5
186
100
AcDbEntity
8
0
100
AcDbPolyline
90
8
70
1
43
0.0
10
144.61250000000001
20
59.645192999999999
10
131.61250000000001
20
59.645192999999999
42
0.41421356237309509
10
131.11250000000001
20
59.145193000000006
10
131.11250000000001
20
46.145193000000006
42
0.41421356237309509
10
131.61250000000001
20
45.645193000000006
10
144.61250000000001
20
45.645193000000006
42
0.41421356237309509
10
145.11250000000001
20
46.145193000000006
10
145.11250000000001
20
59.145193000000006
42
0.41421356237309509
0
LWPOLYLINE
5
187
100
AcDbEntity
8
0
100
AcDbPolyline
90
8
70
1
43
0.0
10
125.5625
20
45.645193000000006
10
112.56250000000001
20
45.645192999999999
42
-0.41421356237309509
10
112.0625
20
46.145193000000006
10
112.0625
20
59.145193000000006
42
-0.41421356237309509
10
112.56250000000001
20
59.645192999999999
10
125.5625
20
59.645193000000006
42
-0.41421356237309509
10
126.06250000000001
20
59.145193000000006
10
126.0625
20
46.145193000000006
42
-0.41421356237309509
0
LWPOLYLINE
5
188
100
AcDbEntity
8
0
100
AcDbPolyline
90
8
70
1
43
0.0
10
164.16250000000002
20
46.145193000000006
42
-0.41421356237309509
10
163.66250000000002
20
45.645193000000006
10
150.66249999999999
20
45.645192999999999
42
-0.41421356237309509
10
150.16249999999999
20
46.145193000000006
10
150.16249999999999
20
59.145193000000006
42
-0.41421356237309509
10
150.66249999999999
20
59.645192999999999
10
163.66250000000002
20
59.645193000000006
42
-0.41421356237309509
10
164.16250000000002
20
59.145193000000006
0
LWPOLYLINE
5
189
100
AcDbEntity
8
0
100
AcDbPolyline
90
8
70
1
43
0.0
10
281.56875000000002
20
59.145193000000006
42
-0.41421356237309509
10
282.06875000000002
20
59.645192999999999
10
283.06875000000002
20
59.645193000000006
42
-0.41421356237309509
10
283.56875000000008
20
59.145193000000006
10
283.56875000000008
20
46.145193000000006
42
-0.41421356237309509
10
283.06875000000002
20
45.645193000000006
10
282.06875000000002
20
45.645192999999999
42
-0.41421356237309509
10
281.56875000000002
20
46.145193000000006
0
LWPOLYLINE
5
190
100
AcDbEntity
8
0
100
AcDbPolyline
90
8
70
1
43
0.0
10
271.31875000000002
20
46.145193000000006
10
271.31875000000002
20
59.145193000000006
42
0.41421356237309509
10
270.81875000000002
20
59.645192999999999
10
257.81875000000002
20
59.645192999999999
42
0.41421356237309509
10
257.31875000000002
20
59.145193000000006
10
257.31875000000002
20
46.145193000000006
42
0.41421356237309509
10
257.81875000000002
20
45.645193000000006
10
270.81875000000002
20
45.645193000000006
42
0.41421356237309509
0
LWPOLYLINE
5
191
100
AcDbEntity
8
0
100
AcDbPolyline
90
8
70
1
43
0.0
10
249.50575000000001
20
44.645192999999992
42
-0.41421356237309509
10
249.00575000000001
20
45.145192999999999
10
249.00575000000001
20
58.145193000000006
42
-0.41421356237309509
10
249.50575000000001
20
58.645193000000006
10
255.25575000000003
20
58.645193000000013
42
-0.41421356237309509
10
255.75575000000003
20
58.145193000000006
10
255.75575000000003
20
45.145192999999999
42
-0.41421356237309509
10
255.25575000000003
20
44.645192999999999
0
LWPOLYLINE
5
192
100
AcDbEntity
8
0
100
AcDbPolyline
90
8
70
1
43
0.0
10
239.86250000000001
20
59.645193000000006
42
-0.41421356237309509
10
240.36250000000001
20
59.145193000000006
10
240.36250000000001
20
46.145193000000006
42
-0.41421356237309509
10
239.86250000000001
20
45.645193000000006
10
226.86250000000001
20
45.645192999999999
42
-0.41421356237309509
10
226.36250000000001
20
46.145193000000006
10
226.36250000000001
20
59.145193000000006
42
-0.41421356237309509
10
226.86250000000001
20
59.645192999999999
0
LWPOLYLINE
5
193
100
AcDbEntity
8
0
100
AcDbPolyline
90
8
70
1
43
0.0
10
201.76249999999999
20
59.645193000000006
42
-0.41421356237309509
10
202.26249999999999
20
59.145193000000006
10
202.26249999999999
20
46.145193000000006
42
-0.41421356237309509
10
201.76249999999999
20
45.645193000000006
10
188.76249999999999
20
45.645192999999999
42
-0.41421356237309509
10
188.26249999999999
20
46.145193000000006
10
188.26249999999999
20
59.145193000000006
42
-0.41421356237309509
10
188.76249999999999
20
59.645192999999999
0
LWPOLYLINE
5
194
100
AcDbEntity
8
0
100
AcDbPolyline
90
8
70
1
43
0.0
10
311.30000000000001
20
59.645192999999999
10
298.30000000000001
20
59.645192999999999
42
0.41421356237309509
10
297.80000000000001
20
59.145193000000006
10
297.80000000000001
20
46.145193000000006
42
0.41421356237309509
10
298.30000000000001
20
45.645193000000006
10
311.30000000000001
20
45.645193000000006
42
0.41421356237309509
10
311.80000000000001
20
46.145193000000006
10
311.80000000000001
20
59.145193000000006
42
0.41421356237309509
0
LWPOLYLINE
5
195
100
AcDbEntity
8
0
100
AcDbPolyline
90
8
70
1
43
0.0
10
2.5249999999999928
20
121.057693
42
-0.41421356237309509
10
3.0249999999999999
20
121.55769300000001
10
16.024999999999999
20
121.55769300000001
42
-0.41421356237309509
10
16.524999999999999
20
121.057693
10
16.525000000000006
20
108.057693
42
-0.41421356237308465
10
16.024999999999999
20
107.557693
10
3.0249999999999999
20
107.557693
42
-0.41421356237309509
10
2.5249999999999999
20
108.05769300000001
0
LWPOLYLINE
5
196
100
AcDbEntity
8
0
100
AcDbPolyline
90
8
70
1
43
0.0
10
92.224999999999994
20
121.55769300000001
10
79.224999999999994
20
121.55769300000001
42
0.41421356237309509
10
78.724999999999994
20
121.057693
10
78.724999999999994
20
108.057693
42
0.41421356237308465
10
79.224999999999994
20
107.557693
10
92.224999999999994
20
107.557693
42
0.41421356237308465
10
92.724999999999994
20
108.057693
10
92.725000000000009
20
121.057693
42
0.41421356237309509
0
LWPOLYLINE
5
197
100
AcDbEntity
8
0
100
AcDbPolyline
90
8
70
1
43
0.0
10
98.275000000000006
20
107.557693
42
-0.41421356237309509
10
97.775000000000006
20
108.05769300000001
10
97.775000000000006
20
121.057693
42
-0.41421356237309509
10
98.275000000000006
20
121.55769300000001
10
111.27500000000001
20
121.55769300000001
42
-0.41421356237309509
10
111.77500000000002
20
121.057693
10
111.77500000000002
20
108.057693
42
-0.41421356237308465
10
111.27500000000001
20
107.557693
0
LWPOLYLINE
5
198
100
AcDbEntity
8
0
100
AcDbPolyline
90
8
70
1
43
0.0
10
40.624999999999993
20
121.057693
42
-0.41421356237309509
10
41.125
20
121.55769300000001
10
54.125000000000007
20
121.557693
42
-0.41421356237309509
10
54.625
20
121.057693
10
54.625000000000014
20
108.05769300000001
42
-0.41421356237309509
10
54.125000000000007
20
107.557693
10
41.125
20
107.557693
42
-0.41421356237308465
10
40.625
20
108.057693
0
LWPOLYLINE
5
199
100
AcDbEntity
8
0
100
AcDbPolyline
90
8
70
1
43
0.0
10
269.22500000000002
20
121.057693
42
-0.41421356237309509
10
269.72500000000002
20
121.55769300000001
10
282.72500000000002
20
121.55769300000001
42
-0.41421356237309509
10
283.22500000000002
20
121.057693
10
283.22500000000002
20
108.057693
42
-0.41421356237308465
10
282.72500000000002
20
107.557693
10
269.72500000000002
20
107.557693
42
-0.41421356237308465
10
269.22500000000002
20
108.057693
0
LWPOLYLINE
5
200
100
AcDbEntity
8
0
100
AcDbPolyline
90
8
70
1
43
0.0
10
21.575000000000003
20
84.245193
10
21.574999999999992
20
97.245193
42
-0.41421356237309509
10
22.074999999999999
20
97.745193000000015
10
35.075000000000003
20
97.745193000000015
42
-0.41421356237309509
10
35.575000000000003
20
97.245193
10
35.57500000000001
20
84.245193
42
-0.41421356237309509
10
35.075000000000003
20
83.745193
10
22.074999999999999
20
83.745193
42
-0.41421356237309509
0
LWPOLYLINE
5
201
100
AcDbEntity
8
0
100
AcDbPolyline
90
8
70
1
43
0.0
10
16.024999999999999
20
83.745193
10
3.0249999999999999
20
83.745193
42
-0.41421356237309509
10
2.5249999999999999
20
84.245193
10
2.5249999999999928
20
97.245193
42
-0.41421356237309509
10
3.0249999999999999
20
97.745193000000015
10
16.024999999999999
20
97.745193000000015
42
-0.41421356237309509
10
16.525000000000002
20
97.245193
10
16.525000000000006
20
84.245193
42
-0.41421356237309509
0
LWPOLYLINE
5
202
100
AcDbEntity
8
0
100
AcDbPolyline
90
8
70
1
43
0.0
10
149.375
20
83.745193
10
136.375
20
83.745193
42
-0.41421356237309509
10
135.875
20
84.245193
10
135.875
20
97.245193
42
-0.41421356237309509
10
136.375
20
97.745193000000015
10
149.375
20
97.745193000000015
42
-0.41421356237309509
10
149.875
20
97.245193
10
149.875
20
84.245193
42
-0.41421356237309509
0
LWPOLYLINE
5
203
100
AcDbEntity
8
0
100
AcDbPolyline
90
8
70
1
43
0.0
10
41.125
20
83.745193
42
-0.41421356237309509
10
40.625
20
84.245193
10
40.624999999999993
20
97.245193
42
-0.41421356237309509
10
41.125
20
97.745193000000015
10
54.125000000000007
20
97.745193000000015
42
-0.41421356237309509
10
54.625
20
97.245193
10
54.625000000000014
20
84.245193
42
-0.41421356237309509
10
54.125000000000007
20
83.745193
0
LWPOLYLINE
5
204
100
AcDbEntity
8
0
100
AcDbPolyline
90
8
70
1
43
0.0
10
297.80000000000001
20
108.057693
10
297.80000000000001
20
121.057693
42
-0.41421356237309509
10
298.30000000000001
20
121.55769300000001
10
311.30000000000001
20
121.55769300000001
42
-0.41421356237309509
10
311.80000000000001
20
121.057693
10
311.80000000000001
20
108.057693
42
-0.41421356237308465
10
311.30000000000001
20
107.557693
10
298.30000000000007
20
107.557693
42
-0.41421356237308465
0
LWPOLYLINE
5
205
100
AcDbEntity
8
0
100
AcDbPolyline
90
8
70
1
43
0.0
10
231.125
20
97.245193
42
-0.41421356237309509
10
231.625
20
97.745193000000015
10
244.62500000000003
20
97.745193000000015
42
-0.41421356237309509
10
245.12500000000003
20
97.245193
10
245.12500000000003
20
84.245193
42
-0.41421356237309509
10
244.62500000000003
20
83.745193
10
231.625
20
83.745193
42
-0.41421356237309509
10
231.125
20
84.245193
0
LWPOLYLINE
5
206
100
AcDbEntity
8
0
100
AcDbPolyline
90
8
70
1
43
0.0
10
155.42500000000001
20
83.745193
42
-0.41421356237309509
10
154.92500000000001
20
84.245193
10
154.92500000000001
20
97.245193
42
-0.41421356237309509
10
155.42500000000001
20
97.745193000000015
10
168.42500000000001
20
97.745193000000015
42
-0.41421356237309509
10
168.92500000000001
20
97.245193
10
168.92500000000001
20
84.245193
42
-0.41421356237309509
10
168.42500000000001
20
83.745193
0
LWPOLYLINE
5
207
100
AcDbEntity
8
0
100
AcDbPolyline
90
8
70
1
43
0.0
10
225.57500000000002
20
97.745193000000015
42
-0.41421356237309509
10
226.07500000000002
20
97.245193
10
226.07500000000002
20
84.245193
42
-0.41421356237309509
10
225.57500000000002
20
83.745193
10
212.57499999999999
20
83.745193
42
-0.41421356237309509
10
212.07499999999999
20
84.245193
10
212.07499999999999
20
97.245193
42
-0.41421356237309509
10
212.57499999999999
20
97.745193000000015
0
LWPOLYLINE
5
208
100
AcDbEntity
8
0
100
AcDbPolyline
90
8
70
1
43
0.0
10
275.26299999999998
20
96.245193000000015
42
-0.41421356237309509
10
275.76299999999998
20
96.745193000000015
10
281.51299999999998
20
96.745193000000015
42
-0.41421356237309509
10
282.01299999999998
20
96.245193000000015
10
282.01299999999998
20
83.245193
42
-0.41421356237309509
10
281.51299999999998
20
82.745193000000015
10
275.76299999999998
20
82.745193
42
-0.41421356237309509
10
275.26299999999998
20
83.245193
0
LWPOLYLINE
5
209
100
AcDbEntity
8
0
100
AcDbPolyline
90
8
70
1
43
0.0
10
206.52500000000003
20
97.745193000000015
10
193.52500000000003
20
97.745193000000015
42
0.41421356237309509
10
193.02500000000003
20
97.245193
10
193.02500000000003
20
84.245193
42
0.41421356237309509
10
193.52500000000003
20
83.745193
10
206.52500000000003
20
83.745193
42
0.41421356237309509
10
207.02500000000001
20
84.245193
10
207.02500000000003
20
97.245193
42
0.41421356237309509
0
LWPOLYLINE
5
210
100
AcDbEntity
8
0
100
AcDbPolyline
90
8
70
1
43
0.0
10
257.637
20
96.745193
10
251.887
20
96.745193000000015
42
0.41421356237309509
10
251.387
20
96.245193000000015
10
251.387
20
83.245193
42
0.41421356237309509
10
251.887
20
82.745193000000015
10
257.637
20
82.745193
42
0.41421356237309509
10
258.137
20
83.245193
10
258.137
20
96.245193000000015
42
0.41421356237309509
0
LWPOLYLINE
5
211
100
AcDbEntity
8
0
100
AcDbPolyline
90
8
70
1
43
0.0
10
273.19999999999999
20
97.745193000000015
42
-0.41421356237309509
10
273.69999999999999
20
97.245193
10
273.69999999999999
20
84.245193
42
-0.41421356237309509
10
273.19999999999999
20
83.745193
10
260.19999999999999
20
83.745193
42
-0.41421356237309509
10
259.69999999999999
20
84.245193
10
259.69999999999999
20
97.245193
42
-0.41421356237309509
10
260.19999999999999
20
97.745193000000015
0
LWPOLYLINE
5
212
100
AcDbEntity
8
0
100
AcDbPolyline
90
8
70
1
43
0.0
10
187.97499999999999
20
84.245193
10
187.97499999999999
20
97.245193
42
0.41421356237309509
10
187.47499999999999
20
97.745193000000015
10
174.47500000000002
20
97.745193000000015
42
0.41421356237309509
10
173.97500000000002
20
97.245193
10
173.97500000000002
20
84.245193
42
0.41421356237309509
10
174.47500000000002
20
83.745193
10
187.47499999999999
20
83.745193
42
0.41421356237309509
0
LWPOLYLINE
5
213
100
AcDbEntity
8
0
100
AcDbPolyline
90
8
70
1
43
0.0
10
73.174999999999997
20
107.557693
10
60.174999999999997
20
107.557693
42
-0.41421356237308465
10
59.675000000000004
20
108.057693
10
59.674999999999997
20
121.057693
42
-0.41421356237309509
10
60.174999999999997
20
121.55769300000001
10
73.174999999999997
20
121.557693
42
-0.41421356237309509
10
73.674999999999997
20
121.057693
10
73.675000000000011
20
108.057693
42
-0.41421356237308465
0
LWPOLYLINE
5
214
100
AcDbEntity
8
0
100
AcDbPolyline
90
8
70
1
43
0.0
10
248.94999999999999
20
83.745193
10
247.95000000000002
20
83.745193
42
-0.41421356237309509
10
247.45000000000002
20
84.245193
10
247.45000000000002
20
97.245193
42
-0.41421356237309509
10
247.95000000000002
20
97.745193000000015
10
248.94999999999999
20
97.745193000000015
42
-0.41421356237309509
10
249.44999999999999
20
97.245193
10
249.44999999999999
20
84.245193
42
-0.41421356237309509
0
LWPOLYLINE
5
215
100
AcDbEntity
8
0
100
AcDbPolyline
90
8
70
1
43
0.0
10
311.30000000000001
20
83.745193
10
298.30000000000001
20
83.745193
42
-0.41421356237309509
10
297.80000000000001
20
84.245193
10
297.80000000000001
20
97.245193
42
-0.41421356237309509
10
298.30000000000001
20
97.745193000000015
10
311.30000000000001
20
97.745193000000015
42
-0.41421356237309509
10
311.80000000000001
20
97.245193
10
311.80000000000001
20
84.245193
42
-0.41421356237309509
0
LWPOLYLINE
5
216
100
AcDbEntity
8
0
100
AcDbPolyline
90
8
70
1
43
0.0
10
285.45000000000005
20
83.745193
10
284.44999999999999
20
83.745193
42
-0.41421356237309509
10
283.94999999999999
20
84.245193
10
283.94999999999999
20
97.245193
42
-0.41421356237309509
10
284.44999999999999
20
97.745193000000015
10
285.45000000000005
20
97.745193000000015
42
-0.41421356237309509
10
285.95000000000005
20
97.245193
10
285.95000000000005
20
84.245193
42
-0.41421356237309509
0
LWPOLYLINE
5
217
100
AcDbEntity
8
0
100
AcDbPolyline
90
8
70
1
43
0.0
10
20.787500000000001
20
78.695193000000003
10
7.7875000000000005
20
78.695193000000003
42
0.41421356237309509
10
7.2874999999999996
20
78.195193000000003
10
7.2874999999999996
20
65.195193000000003
42
0.41421356237309509
10
7.7875000000000005
20
64.695193000000003
10
20.787500000000001
20
64.695193000000003
42
0.41421356237309509
10
21.287500000000001
20
65.195193000000003
10
21.287500000000001
20
78.195193000000003
42
0.41421356237309509
0
LWPOLYLINE
5
218
100
AcDbEntity
8
0
100
AcDbPolyline
90
8
70
1
43
0.0
10
145.11250000000001
20
8.0451930000000083
42
-0.41421356237309509
10
144.61250000000001
20
7.5451930000000083
10
131.61250000000001
20
7.5451930000000011
42
-0.41421356237309509
10
131.11250000000001
20
8.0451930000000083
10
131.11250000000001
20
21.045192999999998
42
-0.41421356237309509
10
131.61250000000001
20
21.545193000000005
10
144.61250000000001
20
21.545193000000005
42
-0.41421356237309509
10
145.11250000000001
20
21.045192999999998
0
LWPOLYLINE
5
219
100
AcDbEntity
8
0
100
AcDbPolyline
90
8
70
1
43
0.0
10
307.03750000000002
20
3.2826930000000054
10
307.03750000000002
20
16.282692999999995
42
0.41421356237309509
10
306.53750000000002
20
16.782693000000002
10
293.53750000000002
20
16.782692999999995
42
0.41421356237309509
10
293.03750000000002
20
16.282692999999995
10
293.03750000000002
20
3.2826930000000054
42
0.41421356237309509
10
293.53750000000002
20
2.7826930000000054
10
306.53750000000002
20
2.7826930000000054
42
0.41421356237309509
0
LWPOLYLINE
5
220
100
AcDbEntity
8
0
100
AcDbPolyline
90
8
70
1
43
0.0
10
66.53125
20
8.0451930000000083
42
-0.41421356237309509
10
66.03125
20
7.5451930000000083
10
53.031250000000007
20
7.54519300000001
42
-0.41421356237309509
10
52.531250000000007
20
8.0451930000000083
10
52.531250000000007
20
21.045192999999998
42
-0.41421356237309509
10
53.031250000000007
20
21.545193000000005
10
66.03125
20
21.545192999999998
42
-0.41421356237309509
10
66.53125
20
21.045192999999998
0
LWPOLYLINE
5
221
100
AcDbEntity
8
0
100
AcDbPolyline
90
8
70
1
43
0.0
10
287.48750000000001
20
35.832693000000013
42
-0.41421356237309509
10
287.98750000000001
20
35.332693000000006
10
287.98750000000001
20
22.332692999999999
42
-0.41421356237309509
10
287.48750000000001
20
21.832692999999992
10
274.48750000000007
20
21.832692999999992
42
-0.41421356237309509
10
273.98750000000001
20
22.332692999999999
10
273.98750000000001
20
35.332693000000006
42
-0.41421356237309509
10
274.48750000000007
20
35.832693000000006
0
LWPOLYLINE
5
222
100
AcDbEntity
8
0
100
AcDbPolyline
90
8
70
1
43
0.0
10
314.32499999999999
20
0.75769300000001039
10
314.32499999999999
20
123.58269300000001
42
0.41421356237308465
10
313.82500000000005
20
124.08269299999999
10
0.49999999999999983
20
124.08269300000001
42
0.41421356237308998
10
1.2490009027033011e-15
20
123.58269300000001
10
0
20
0.75769300000001039
42
0.41421356237309959
10
0.50000000000000711
20
0.25769300000000334
10
313.82500000000005
20
0.25769300000001882
42
0.41421356237310675
0
LWPOLYLINE
5
223
100
AcDbEntity
8
0
100
AcDbPolyline
90
8
70
1
43
0.0
10
209.69374999999999
20
21.045192999999998
42
-0.41421356237309509
10
210.19374999999999
20
21.545192999999998
10
223.19375000000002
20
21.545193000000005
42
-0.41421356237309509
10
223.69375000000002
20
21.045192999999998
10
223.69375000000002
20
8.0451930000000083
42
-0.41421356237309509
10
223.19375000000002
20
7.5451930000000083
10
210.19374999999999
20
7.5451930000000011
42
-0.41421356237309509
10
209.69374999999999
20
8.0451930000000083
0
LWPOLYLINE
5
224
100
AcDbEntity
8
0
100
AcDbPolyline
90
8
70
1
43
0.0
10
28.71875
20
8.0451930000000083
10
28.71875
20
21.045192999999998
42
-0.41421356237309509
10
29.21875
20
21.545193000000005
10
42.21875
20
21.545192999999998
42
-0.41421356237309509
10
42.718750000000007
20
21.045192999999998
10
42.71875
20
8.0451930000000083
42
-0.41421356237309509
10
42.21875
20
7.5451930000000083
10
29.21875
20
7.54519300000001
42
-0.41421356237309509
0
LWPOLYLINE
5
225
100
AcDbEntity
8
0
100
AcDbPolyline
90
8
70
1
43
0.0
10
287.98750000000001
20
3.2826930000000054
10
287.98750000000001
20
16.282692999999995
42
0.41421356237309509
10
287.48750000000001
20
16.782693000000002
10
274.48750000000007
20
16.782692999999995
42
0.41421356237309509
10
273.98750000000001
20
16.282692999999995
10
273.98750000000001
20
3.2826930000000054
42
0.41421356237309509
10
274.48750000000007
20
2.7826929999999983
10
287.48750000000001
20
2.7826930000000054
42
0.41421356237309509
0
LWPOLYLINE
5
226
100
AcDbEntity
8
0
100
AcDbPolyline
90
8
70
1
43
0.0
10
268.4375
20
2.7826929999999983
10
255.43750000000003
20
2.7826929999999983
42
-0.41421356237309509
10
254.93750000000003
20
3.2826930000000054
10
254.93750000000003
20
16.282692999999995
42
-0.41421356237309509
10
255.43750000000003
20
16.782693000000002
10
268.4375
20
16.782693000000002
42
-0.41421356237309509
10
268.9375
20
16.282692999999995
10
268.9375
20
3.2826930000000054
42
-0.41421356237309509
0
LWPOLYLINE
5
227
100
AcDbEntity
8
0
100
AcDbPolyline
90
8
70
1
43
0.0
10
238.93125000000001
20
26.595192999999995
10
237.93125000000003
20
26.595192999999995
42
-0.41421356237309509
10
237.43125000000003
20
27.095193000000002
10
237.43125000000003
20
40.095193000000009
42
-0.41421356237309509
10
237.93125000000003
20
40.595192999999995
10
238.93125000000001
20
40.595193000000016
42
-0.41421356237309509
10
239.43125000000003
20
40.095193000000009
10
239.43125000000003
20
27.095193000000002
42
-0.41421356237309509
0
LWPOLYLINE
5
228
100
AcDbEntity
8
0
100
AcDbPolyline
90
8
70
1
43
0.0
10
159.40000000000001
20
108.057693
10
159.40000000000001
20
121.057693
42
0.41421356237309509
10
158.90000000000001
20
121.55769300000001
10
145.90000000000001
20
121.55769300000001
42
0.41421356237309509
10
145.40000000000001
20
121.057693
10
145.40000000000001
20
108.057693
42
0.41421356237308465
10
145.90000000000001
20
107.557693
10
158.90000000000001
20
107.557693
42
0.41421356237308465
0
LWPOLYLINE
5
229
100
AcDbEntity
8
0
100
AcDbPolyline
90
8
70
1
43
0.0
10
244.62500000000003
20
21.545193000000005
42
-0.41421356237309509
10
245.12500000000003
20
21.045192999999998
10
245.12500000000003
20
8.0451930000000083
42
-0.41421356237309509
10
244.62500000000003
20
7.5451930000000083
10
231.625
20
7.5451930000000011
42
-0.41421356237309509
10
231.125
20
8.0451930000000083
10
231.125
20
21.045192999999998
42
-0.41421356237309509
10
231.625
20
21.545192999999998
0
LWPOLYLINE
5
230
100
AcDbEntity
8
0
100
AcDbPolyline
90
8
70
1
43
0.0
10
18.90625
20
8.0451930000000083
10
18.906250000000004
20
21.045192999999998
42
0.41421356237309509
10
18.40625
20
21.545193000000005
10
5.40625
20
21.545192999999998
42
0.41421356237309509
10
4.90625
20
21.045192999999998
10
4.90625
20
8.0451930000000083
42
0.41421356237309509
10
5.4062499999999991
20
7.5451930000000011
10
18.40625
20
7.5451930000000083
42
0.41421356237309509
0
LWPOLYLINE
5
231
100
AcDbEntity
8
0
100
AcDbPolyline
90
8
70
1
43
0.0
10
84.33750000000002
20
7.0451930000000118
10
84.33750000000002
20
20.045193000000001
42
0.41421356237309509
10
83.837500000000006
20
20.545192999999998
10
78.087500000000006
20
20.545192999999998
42
0.41421356237309509
10
77.587500000000006
20
20.045193000000001
10
77.587500000000006
20
7.0451930000000118
42
0.41421356237309509
10
78.087500000000006
20
6.5451930000000118
10
83.837500000000006
20
6.5451930000000118
42
0.41421356237309509
0
LWPOLYLINE
5
232
100
AcDbEntity
8
0
100
AcDbPolyline
90
8
70
1
43
0.0
10
140.34999999999999
20
108.05769300000001
42
-0.41421356237309509
10
139.84999999999999
20
107.557693
10
126.85000000000001
20
107.557693
42
-0.41421356237309509
10
126.34999999999999
20
108.05769300000001
10
126.34999999999999
20
121.057693
42
-0.41421356237309509
10
126.85000000000001
20
121.55769300000001
10
139.84999999999999
20
121.55769300000001
42
-0.41421356237309509
10
140.34999999999999
20
121.057693
0
LWPOLYLINE
5
233
100
AcDbEntity
8
0
100
AcDbPolyline
90
8
70
1
43
0.0
10
297.80000000000001
20
27.095193000000002
10
297.80000000000001
20
40.095193000000009
42
-0.41421356237309509
10
298.30000000000001
20
40.595193000000009
10
311.30000000000001
20
40.595193000000016
42
-0.41421356237309509
10
311.80000000000001
20
40.095193000000009
10
311.80000000000001
20
27.095193000000002
42
-0.41421356237309509
10
311.30000000000001
20
26.595193000000002
10
298.30000000000001
20
26.595192999999995
42
-0.41421356237309509
0
LWPOLYLINE
5
234
100
AcDbEntity
8
0
100
AcDbPolyline
90
8
70
1
43
0.0
10
191.88749999999999
20
20.045193000000001
42
-0.41421356237309509
10
192.38749999999999
20
20.545192999999998
10
198.13749999999999
20
20.545193000000008
42
-0.41421356237309509
10
198.63749999999999
20
20.045193000000001
10
198.63749999999999
20
7.0451930000000118
42
-0.41421356237309509
10
198.13749999999999
20
6.5451930000000118
10
192.38749999999999
20
6.5451930000000047
42
-0.41421356237309509
10
191.88749999999999
20
7.0451930000000118
0
LWPOLYLINE
5
235
100
AcDbEntity
8
0
100
AcDbPolyline
90
8
70
1
43
0.0
10
96.987500000000011
20
26.595192999999995
10
83.987499999999997
20
26.595192999999995
42
-0.41421356237309509
10
83.487500000000011
20
27.095193000000002
10
83.487499999999983
20
40.095193000000009
42
-0.41421356237309509
10
83.987499999999997
20
40.595192999999995
10
96.987500000000011
20
40.595193000000016
42
-0.41421356237309509
10
97.487500000000011
20
40.095193000000009
10
97.487500000000011
20
27.095193000000002
42
-0.41421356237309509
0
LWPOLYLINE
5
236
100
AcDbEntity
8
0
100
AcDbPolyline
90
8
70
1
43
0.0
10
12.36825
20
39.595193000000002
10
6.6182499999999997
20
39.595193000000009
42
0.41421356237309509
10
6.1182500000000006
20
39.095193000000009
10
6.1182499999999997
20
26.095193000000005
42
0.41421356237309509
10
6.6182499999999997
20
25.595193000000009
10
12.36825
20
25.595193000000009
42
0.41421356237309509
10
12.868250000000002
20
26.095193000000005
10
12.868250000000002
20
39.095193000000009
42
0.41421356237309509
0
LWPOLYLINE
5
237
100
AcDbEntity
8
0
100
AcDbPolyline
90
8
70
1
43
0.0
10
64.4375
20
27.095193000000002
10
64.4375
20
40.095193000000009
42
-0.41421356237309509
10
64.9375
20
40.595192999999995
10
77.9375
20
40.595193000000009
42
-0.41421356237309509
10
78.4375
20
40.095193000000009
10
78.4375
20
27.095193000000002
42
-0.41421356237309509
10
77.9375
20
26.595192999999995
10
64.9375
20
26.595193000000002
42
-0.41421356237309509
0
LWPOLYLINE
5
238
100
AcDbEntity
8
0
100
AcDbPolyline
90
8
70
1
43
0.0
10
27.931249999999999
20
26.595192999999995
10
14.93125
20
26.595193000000002
42
-0.41421356237309509
10
14.431250000000002
20
27.095193000000002
10
14.431250000000002
20
40.095193000000009
42
-0.41421356237309509
10
14.93125
20
40.595192999999995
10
27.931249999999999
20
40.595193000000009
42
-0.41421356237309509
10
28.431250000000002
20
40.095193000000009
10
28.431249999999999
20
27.095193000000002
42
-0.41421356237309509
0
LWPOLYLINE
5
239
100
AcDbEntity
8
0
100
AcDbPolyline
90
8
70
1
43
0.0
10
135.08750000000001
20
26.595192999999995
10
122.08750000000002
20
26.595192999999995
42
-0.41421356237309509
10
121.58750000000001
20
27.095193000000002
10
121.58750000000001
20
40.095193000000009
42
-0.41421356237309509
10
122.08750000000002
20
40.595192999999995
10
135.08750000000001
20
40.595193000000016
42
-0.41421356237309509
10
135.58750000000001
20
40.095193000000009
10
135.58750000000001
20
27.095193000000002
42
-0.41421356237309509
0
LWPOLYLINE
5
240
100
AcDbEntity
8
0
100
AcDbPolyline
90
8
70
1
43
0.0
10
40.681250000000006
20
27.095193000000002
42
-0.41421356237309509
10
40.181250000000006
20
26.595193000000002
10
39.181249999999999
20
26.595193000000002
42
-0.41421356237309509
10
38.681249999999999
20
27.095193000000002
10
38.681249999999999
20
40.095193000000009
42
-0.41421356237309509
10
39.181249999999999
20
40.595193000000009
10
40.181250000000006
20
40.595193000000009
42
-0.41421356237309509
10
40.681250000000006
20
40.095193000000009
0
LWPOLYLINE
5
241
100
AcDbEntity
8
0
100
AcDbPolyline
90
8
70
1
43
0.0
10
4.1812499999999986
20
27.095193000000002
42
-0.41421356237309509
10
3.6812500000000004
20
26.595193000000002
10
2.6812499999999999
20
26.595193000000002
42
-0.41421356237309509
10
2.1812500000000004
20
27.095193000000002
10
2.1812500000000017
20
40.095193000000009
42
-0.41421356237309509
10
2.6812499999999999
20
40.595192999999995
10
3.6812500000000004
20
40.595193000000009
42
-0.41421356237309509
10
4.1812500000000004
20
40.095193000000009
0
LWPOLYLINE
5
242
100
AcDbEntity
8
0
100
AcDbPolyline
90
8
70
1
43
0.0
10
102.53749999999999
20
27.095193000000002
10
102.53749999999999
20
40.095193000000009
42
-0.41421356237309509
10
103.03750000000001
20
40.595193000000009
10
116.03749999999999
20
40.595193000000016
42
-0.41421356237309509
10
116.53750000000001
20
40.095193000000009
10
116.53749999999999
20
27.095193000000002
42
-0.41421356237309509
10
116.03749999999999
20
26.595192999999995
10
103.03750000000001
20
26.595192999999995
42
-0.41421356237309509
0
LWPOLYLINE
5
243
100
AcDbEntity
8
0
100
AcDbPolyline
90
8
70
1
43
0.0
10
29.994250000000005
20
39.095193000000009
42
-0.41421356237309509
10
30.494250000000001
20
39.595193000000009
10
36.244250000000008
20
39.595193000000009
42
-0.41421356237309509
10
36.744250000000001
20
39.095193000000009
10
36.744250000000001
20
26.095193000000005
42
-0.41421356237309509
10
36.244250000000008
20
25.595192999999998
10
30.494250000000001
20
25.595193000000009
42
-0.41421356237309509
10
29.994250000000005
20
26.095193000000005
0
LWPOLYLINE
5
244
100
AcDbEntity
8
0
100
AcDbPolyline
90
8
70
1
43
0.0
10
45.387500000000003
20
27.095193000000002
10
45.387500000000003
20
40.095193000000009
42
-0.41421356237309509
10
45.887500000000003
20
40.595192999999995
10
58.88750000000001
20
40.595193000000009
42
-0.41421356237309509
10
59.387500000000003
20
40.095193000000009
10
59.387500000000003
20
27.095193000000002
42
-0.41421356237309509
10
58.88750000000001
20
26.595192999999995
10
45.887500000000003
20
26.595193000000002
42
-0.41421356237309509
0
LWPOLYLINE
5
245
100
AcDbEntity
8
0
100
AcDbPolyline
90
8
70
1
43
0.0
10
154.63750000000002
20
27.095193000000002
42
-0.41421356237309509
10
154.13749999999999
20
26.595193000000002
10
141.13749999999999
20
26.595192999999995
42
-0.41421356237309509
10
140.63749999999999
20
27.095193000000002
10
140.63749999999999
20
40.095193000000009
42
-0.41421356237309509
10
141.13749999999999
20
40.595193000000009
10
154.13749999999999
20
40.595193000000016
42
-0.41421356237309509
10
154.63750000000002
20
40.095193000000009
0
LWPOLYLINE
5
246
100
AcDbEntity
8
0
100
AcDbPolyline
90
8
70
1
43
0.0
10
164.44999999999999
20
121.057693
42
-0.41421356237309509
10
164.95000000000002
20
121.55769300000001
10
177.94999999999999
20
121.55769300000001
42
-0.41421356237309509
10
178.44999999999999
20
121.057693
10
178.44999999999999
20
108.057693
42
-0.41421356237308465
10
177.94999999999999
20
107.557693
10
164.95000000000002
20
107.557693
42
-0.41421356237309509
10
164.44999999999999
20
108.05769300000001
0
LWPOLYLINE
5
247
100
AcDbEntity
8
0
100
AcDbPolyline
90
8
70
1
43
0.0
10
63.650000000000006
20
78.695193000000003
10
50.650000000000006
20
78.695193000000003
42
0.41421356237309509
10
50.150000000000006
20
78.195193000000003
10
50.150000000000006
20
65.195193000000003
42
0.41421356237309509
10
50.650000000000006
20
64.695193000000003
10
63.650000000000006
20
64.695193000000003
42
0.41421356237309509
10
64.150000000000006
20
65.195193000000003
10
64.150000000000006
20
78.195193000000003
42
0.41421356237309509
0
LWPOLYLINE
5
248
100
AcDbEntity
8
0
100
AcDbPolyline
90
8
70
1
43
0.0
10
35.862500000000004
20
59.145193000000006
42
-0.41421356237309509
10
36.362499999999997
20
59.645192999999999
10
49.362500000000004
20
59.645192999999999
42
-0.41421356237309509
10
49.862499999999997
20
59.145193000000006
10
49.862499999999997
20
46.145193000000006
42
-0.41421356237309509
10
49.362500000000004
20
45.645193000000006
10
36.362499999999997
20
45.645193000000006
42
-0.41421356237309509
10
35.862499999999997
20
46.145193000000006
0
LWPOLYLINE
5
249
100
AcDbEntity
8
0
100
AcDbPolyline
90
8
70
1
43
0.0
10
240.65000000000001
20
78.195193000000003
42
-0.41421356237309509
10
241.15000000000003
20
78.695193000000003
10
254.15000000000003
20
78.695193000000017
42
-0.41421356237309509
10
254.65000000000003
20
78.195193000000003
10
254.65000000000003
20
65.195193000000003
42
-0.41421356237309509
10
254.15000000000003
20
64.695193000000003
10
241.15000000000003
20
64.695192999999989
42
-0.41421356237309509
10
240.65000000000001
20
65.195193000000003
0
LWPOLYLINE
5
250
100
AcDbEntity
8
0
100
AcDbPolyline
90
8
70
1
43
0.0
10
73.962500000000006
20
59.145193000000006
42
-0.41421356237309509
10
74.462500000000006
20
59.645192999999999
10
87.46250000000002
20
59.645193000000006
42
-0.41421356237309509
10
87.96250000000002
20
59.145193000000006
10
87.962500000000006
20
46.145193000000006
42
-0.41421356237309509
10
87.46250000000002
20
45.645193000000006
10
74.462500000000006
20
45.645193000000006
42
-0.41421356237309509
10
73.962500000000006
20
46.145193000000006
0
LWPOLYLINE
5
251
100
AcDbEntity
8
0
100
AcDbPolyline
90
8
70
1
43
0.0
10
264.46249999999998
20
65.195193000000003
10
264.46249999999998
20
78.195193000000003
42
-0.41421356237309509
10
264.96249999999998
20
78.695193000000003
10
277.96249999999998
20
78.695193000000017
42
-0.41421356237309509
10
278.46249999999998
20
78.195193000000003
10
278.46250000000003
20
65.195193000000003
42
-0.41421356237309509
10
277.96249999999998
20
64.695193000000003
10
264.96249999999998
20
64.695192999999989
42
-0.41421356237309509
0
LWPOLYLINE
5
252
100
AcDbEntity
8
0
100
AcDbPolyline
90
8
70
1
43
0.0
10
28.768750000000001
20
59.645192999999999
10
27.768750000000004
20
59.645192999999999
42
0.41421356237309509
10
27.268750000000001
20
59.145193000000006
10
27.268750000000004
20
46.145193000000006
42
0.41421356237309509
10
27.768750000000004
20
45.645193000000006
10
28.768750000000001
20
45.645193000000006
42
0.41421356237309509
10
29.268749999999997
20
46.145193000000006
10
29.268749999999997
20
59.145193000000006
42
0.41421356237309509
0
LWPOLYLINE
5
253
100
AcDbEntity
8
0
100
AcDbPolyline
90
8
70
1
43
0.0
10
216.05000000000004
20
78.695193000000017
42
-0.41421356237309509
10
216.55000000000004
20
78.195193000000003
10
216.55000000000004
20
65.195193000000003
42
-0.41421356237309509
10
216.05000000000004
20
64.695193000000003
10
203.05000000000004
20
64.695192999999989
42
-0.41421356237309509
10
202.55000000000001
20
65.195193000000003
10
202.55000000000001
20
78.195193000000003
42
-0.41421356237309509
10
203.05000000000004
20
78.695193000000003
0
LWPOLYLINE
5
254
100
AcDbEntity
8
0
100
AcDbPolyline
90
8
70
1
43
0.0
10
23.668749999999999
20
46.145193000000006
42
-0.41421356237309509
10
23.168749999999999
20
45.645193000000006
10
10.168749999999999
20
45.645193000000006
42
-0.41421356237309509
10
9.6687499999999993
20
46.145193000000006
10
9.6687500000000011
20
59.145193000000006
42
-0.41421356237309509
10
10.168749999999999
20
59.645192999999999
10
23.168749999999999
20
59.645192999999999
42
-0.41421356237309509
10
23.668749999999999
20
59.145193000000006
0
LWPOLYLINE
5
255
100
AcDbEntity
8
0
100
AcDbPolyline
90
8
70
1
43
0.0
10
3.6874999999999991
20
65.195193000000003
42
-0.41421356237309509
10
3.1875000000000009
20
64.695193000000003
10
2.1875000000000004
20
64.695193000000003
42
-0.41421356237309509
10
1.6875000000000007
20
65.195193000000003
10
1.6875000000000022
20
78.195193000000003
42
-0.41421356237309509
10
2.1875000000000004
20
78.695193000000003
10
3.1875000000000009
20
78.695193000000003
42
-0.41421356237309509
10
3.6875000000000009
20
78.195193000000003
0
LWPOLYLINE
5
256
100
AcDbEntity
8
0
100
AcDbPolyline
90
8
70
1
43
0.0
10
68.912499999999994
20
46.145193000000006
42
-0.41421356237309509
10
68.412499999999994
20
45.645193000000006
10
55.412500000000009
20
45.645193000000006
42
-0.41421356237309509
10
54.912500000000009
20
46.145193000000006
10
54.912500000000009
20
59.145193000000006
42
-0.41421356237309509
10
55.412500000000009
20
59.645192999999999
10
68.412499999999994
20
59.645192999999999
42
-0.41421356237309509
10
68.912499999999994
20
59.145193000000006
0
LWPOLYLINE
5
257
100
AcDbEntity
8
0
100
AcDbPolyline
90
8
70
1
43
0.0
10
235.60000000000002
20
65.195193000000003
42
-0.41421356237309509
10
235.10000000000002
20
64.695193000000003
10
222.10000000000002
20
64.695192999999989
42
-0.41421356237309509
10
221.59999999999999
20
65.195193000000003
10
221.59999999999999
20
78.195193000000003
42
-0.41421356237309509
10
222.10000000000002
20
78.695193000000003
10
235.10000000000002
20
78.695193000000017
42
-0.41421356237309509
10
235.60000000000002
20
78.195193000000003
0
LWPOLYLINE
5
258
100
AcDbEntity
8
0
100
AcDbPolyline
90
8
70
1
43
0.0
10
5.5687500000000014
20
59.645192999999999
10
4.5687500000000005
20
59.645192999999999
42
0.41421356237309509
10
4.0687500000000014
20
59.145193000000006
10
4.0687500000000014
20
46.145193000000006
42
0.41421356237309509
10
4.5687500000000005
20
45.645193000000006
10
5.5687500000000014
20
45.645193000000006
42
0.41421356237309509
10
6.0687500000000005
20
46.145193000000006
10
6.0687500000000014
20
59.145193000000006
42
0.41421356237309509
0
LWPOLYLINE
5
259
100
AcDbEntity
8
0
100
AcDbPolyline
90
8
70
1
43
0.0
10
24.887500000000003
20
78.195193000000003
42
-0.41421356237309509
10
25.387500000000003
20
78.695193000000003
10
26.387499999999999
20
78.695193000000003
42
-0.41421356237309509
10
26.887499999999996
20
78.195193000000003
10
26.887499999999996
20
65.195193000000003
42
-0.41421356237309509
10
26.387499999999999
20
64.695193000000003
10
25.387500000000003
20
64.695193000000003
42
-0.41421356237309509
10
24.887499999999999
20
65.195193000000003
0
LWPOLYLINE
5
260
100
AcDbEntity
8
0
100
AcDbPolyline
90
8
70
1
43
0.0
10
197.50000000000003
20
65.195193000000003
42
-0.41421356237309509
10
197.00000000000003
20
64.695193000000003
10
184.00000000000003
20
64.695192999999989
42
-0.41421356237309509
10
183.5
20
65.195193000000003
10
183.5
20
78.195193000000003
42
-0.41421356237309509
10
184.00000000000003
20
78.695193000000003
10
197.00000000000003
20
78.695193000000017
42
-0.41421356237309509
10
197.50000000000003
20
78.195193000000003
0
LWPOLYLINE
5
261
100
AcDbEntity
8
0
100
AcDbPolyline
90
8
70
1
43
0.0
10
44.600000000000001
20
78.695193000000003
10
31.600000000000001
20
78.695193000000003
42
0.41421356237309509
10
31.100000000000001
20
78.195193000000003
10
31.100000000000001
20
65.195193000000003
42
0.41421356237309509
10
31.600000000000001
20
64.695193000000003
10
44.600000000000001
20
64.695193000000003
42
0.41421356237309509
10
45.100000000000009
20
65.195193000000003
10
45.099999999999994
20
78.195193000000003
42
0.41421356237309509
0
LWPOLYLINE
5
262
100
AcDbEntity
8
0
100
AcDbPolyline
90
8
70
1
43
0.0
10
311.80000000000001
20
65.195193000000003
42
-0.41421356237309509
10
311.30000000000001
20
64.695193000000003
10
298.30000000000001
20
64.695192999999989
42
-0.41421356237309509
10
297.80000000000001
20
65.195193000000003
10
297.80000000000001
20
78.195193000000003
42
-0.41421356237309509
10
298.30000000000001
20
78.695193000000003
10
311.30000000000001
20
78.695193000000017
42
-0.41421356237309509
10
311.80000000000001
20
78.195193000000003
0
LWPOLYLINE
5
263
100
AcDbEntity
8
0
100
AcDbPolyline
90
8
70
1
43
0.0
10
178.44999999999999
20
65.195193000000003
42
-0.41421356237309509
10
177.94999999999999
20
64.695193000000003
10
164.95000000000002
20
64.695192999999989
42
-0.41421356237309509
10
164.44999999999999
20
65.195193000000003
10
164.44999999999999
20
78.195193000000003
42
-0.41421356237309509
10
164.95000000000002
20
78.695193000000003
10
177.94999999999999
20
78.695193000000017
42
-0.41421356237309509
10
178.44999999999999
20
78.195193000000003
0
LWPOLYLINE
5
264
100
AcDbEntity
8
0
100
AcDbPolyline
90
8
70
1
43
0.0
10
82.700000000000017
20
78.695193000000003
10
69.700000000000003
20
78.695193000000003
42
0.41421356237309509
10
69.200000000000003
20
78.195193000000003
10
69.200000000000003
20
65.195193000000003
42
0.41421356237309509
10
69.700000000000003
20
64.695193000000003
10
82.700000000000017
20
64.695193000000003
42
0.41421356237309509
10
83.200000000000017
20
65.195193000000003
10
83.200000000000017
20
78.195193000000003
42
0.41421356237309509
0
LWPOLYLINE
5
265
100
AcDbEntity
8
0
100
AcDbPolyline
90
8
70
1
43
0.0
10
159.40000000000001
20
65.195193000000003
42
-0.41421356237309509
10
158.90000000000001
20
64.695193000000003
10
145.90000000000001
20
64.695192999999989
42
-0.41421356237309509
10
145.40000000000001
20
65.195193000000003
10
145.40000000000003
20
78.195193000000003
42
-0.41421356237309509
10
145.90000000000001
20
78.695193000000003
10
158.90000000000001
20
78.695193000000017
42
-0.41421356237309509
10
159.40000000000001
20
78.195193000000003
0
LWPOLYLINE
5
266
100
AcDbEntity
8
0
100
AcDbPolyline
90
8
70
1
43
0.0
10
260.86250000000001
20
65.195193000000003
42
-0.41421356237309509
10
260.36250000000001
20
64.695193000000003
10
259.36250000000001
20
64.695192999999989
42
-0.41421356237309509
10
258.86250000000001
20
65.195193000000003
10
258.86250000000001
20
78.195193000000003
42
-0.41421356237309509
10
259.36250000000001
20
78.695193000000003
10
260.36250000000001
20
78.695193000000017
42
-0.41421356237309509
10
260.86250000000001
20
78.195193000000003
0
LWPOLYLINE
5
267
100
AcDbEntity
8
0
100
AcDbPolyline
90
8
70
1
43
0.0
10
140.34999999999999
20
65.195193000000003
42
-0.41421356237309509
10
139.84999999999999
20
64.695193000000003
10
126.85000000000001
20
64.695192999999989
42
-0.41421356237309509
10
126.34999999999999
20
65.195193000000003
10
126.35000000000002
20
78.195193000000003
42
-0.41421356237309509
10
126.85000000000001
20
78.695193000000003
10
139.84999999999999
20
78.695193000000017
42
-0.41421356237309509
10
140.34999999999999
20
78.195193000000003
0
LWPOLYLINE
5
268
100
AcDbEntity
8
0
100
AcDbPolyline
90
8
70
1
43
0.0
10
283.5625
20
78.695193000000003
10
282.5625
20
78.695193000000003
42
0.41421356237309509
10
282.0625
20
78.195193000000003
10
282.0625
20
65.195193000000003
42
0.41421356237309509
10
282.5625
20
64.695193000000003
10
283.5625
20
64.695193000000003
42
0.41421356237309509
10
284.06250000000006
20
65.195193000000003
10
284.06250000000006
20
78.195193000000003
42
0.41421356237309509
0
LWPOLYLINE
5
269
100
AcDbEntity
8
0
100
AcDbPolyline
90
8
70
1
43
0.0
10
121.29999999999998
20
65.195193000000003
42
-0.41421356237309509
10
120.8
20
64.695193000000003
10
107.80000000000001
20
64.695192999999989
42
-0.41421356237309509
10
107.30000000000001
20
65.195193000000003
10
107.30000000000001
20
78.195193000000003
42
-0.41421356237309509
10
107.80000000000001
20
78.695193000000003
10
120.8
20
78.695193000000017
42
-0.41421356237309509
10
121.30000000000001
20
78.195193000000003
0
LWPOLYLINE
5
270
100
AcDbEntity
8
0
100
AcDbPolyline
90
8
70
1
43
0.0
10
102.25000000000001
20
65.195193000000003
42
-0.41421356237309509
10
101.75
20
64.695193000000003
10
88.75
20
64.695192999999989
42
-0.41421356237309509
10
88.25
20
65.195193000000003
10
88.25
20
78.195193000000003
42
-0.41421356237309509
10
88.75
20
78.695193000000003
10
101.75
20
78.695193000000017
42
-0.41421356237309509
10
102.25000000000001
20
78.195193000000003
0
ENDSEC
0
SECTION
2
OBJECTS
0
DICTIONARY
5
C
100
AcDbDictionary
3
ACAD_GROUP
350
D
3
ACAD_MLINESTYLE
350
17
0
DICTIONARY
5
D
100
AcDbDictionary
0
DICTIONARY
5
1A
330
C
100
AcDbDictionary
0
DICTIONARY
5
17
100
AcDbDictionary
0
ENDSEC
0
EOF
