0
SECTION
2
HEADER
9
$INSUNITS
70
4
9
$ACADVER
1
AC1014
9
$HANDSEED
5
FFFF
0
ENDSEC
0
SECTION
2
TABLES
0
TABLE
2
VPORT
5
8
100
AcDbSymbolTable
0
ENDTAB
0
TABLE
2
LTYPE
5
5
100
AcDbSymbolTable
0
LTYPE
5
14
100
AcDbSymbolTableRecord
100
AcDbLinetypeTableRecord
2
BYBLOCK
70
0
0
LTYPE
5
15
100
AcDbSymbolTableRecord
100
AcDbLinetypeTableRecord
2
BYLAYER
70
0
0
ENDTAB
0
TABLE
2
LAYER
5
2
100
AcDbSymbolTable
70
2
0
LAYER
5
50
100
AcDbSymbolTableRecord
100
AcDbLayerTableRecord
2
0
70
0
6
CONTINUOUS
0
ENDTAB
0
TABLE
2
STYLE
5
3
100
AcDbSymbolTable
70
1
0
STYLE
5
11
100
AcDbSymbolTableRecord
100
AcDbTextStyleTableRecord
2
STANDARD
70
0
0
ENDTAB
0
TABLE
2
VIEW
5
6
100
AcDbSymbolTable
70
0
0
ENDTAB
0
TABLE
2
UCS
5
7
100
AcDbSymbolTable
70
0
0
ENDTAB
0
TABLE
2
APPID
5
9
100
AcDbSymbolTable
70
2
0
APPID
5
12
100
AcDbSymbolTableRecord
100
AcDbRegAppTableRecord
2
ACAD
70
0
0
ENDTAB
0
TABLE
2
DIMSTYLE
5
A
100
AcDbSymbolTable
70
1
0
ENDTAB
0
TABLE
2
BLOCK_RECORD
5
1
100
AcDbSymbolTable
70
1
0
BLOCK_RECORD
5
1F
100
AcDbSymbolTableRecord
100
AcDbBlockTableRecord
2
*MODEL_SPACE
0
BLOCK_RECORD
5
1B
100
AcDbSymbolTableRecord
100
AcDbBlockTableRecord
2
*PAPER_SPACE
0
ENDTAB
0
ENDSEC
0
SECTION
2
BLOCKS
0
BLOCK
5
20
100
AcDbEntity
100
AcDbBlockBegin
2
*MODEL_SPACE
0
ENDBLK
5
21
100
AcDbEntity
100
AcDbBlockEnd
0
BLOCK
5
1C
100
AcDbEntity
100
AcDbBlockBegin
2
*PAPER_SPACE
0
ENDBLK
5
1D
100
AcDbEntity
100
AcDbBlockEnd
0
ENDSEC
0
SECTION
2
ENTITIES
0
LWPOLYLINE
5
100
100
AcDbEntity
8
0
100
AcDbPolyline
90
8
70
1
43
0.0
10
-105.13149999999985
20
8.5008109573374746
42
-0.4142135623730947
10
-104.13149999999986
20
9.5008109573374693
10
-29.930899999999916
20
9.5008109573374515
42
-0.41421356237309309
10
-28.930899999999941
20
8.5008109573374746
10
-28.930899999999937
20
-8.5511890426625072
42
-0.41421356237309009
10
-29.930899999999934
20
-9.5511890426624984
10
-104.13149999999987
20
-9.5511890426624984
42
-0.41421356237308954
10
-105.13149999999985
20
-8.5511890426625037
0
LWPOLYLINE
5
101
100
AcDbEntity
8
0
100
AcDbPolyline
90
22
70
1
43
0.0
10
-258.53349999999978
20
71.41361095733744
10
-275.58349999999973
20
71.41361095733744
42
0.41421356237307161
10
-276.58349999999973
20
70.41361095733744
10
-276.58349999999973
20
15.260810957337494
42
0.41421356237307549
10
-275.58349999999967
20
14.260810957337462
10
8.1706500000000144
20
14.260810957337462
42
0.41421356237310153
10
9.1706500000000286
20
15.260810957337473
10
9.1706500000000286
20
33.31361095733746
10
9.1692700000000311
20
33.31361095733746
10
9.1692700000000311
20
52.360810957337435
10
9.1706500000000286
20
52.360810957337435
10
9.1706500000000286
20
90.463710957337412
10
9.1692700000000311
20
90.463710957337398
10
9.1692700000000134
20
108.51371095733739
42
0.41421356237310153
10
8.1692699999999974
20
109.51371095733741
10
-237.48349999999974
20
109.51371095733739
42
0.41421356237310542
10
-238.48349999999976
20
108.51371095733739
10
-238.48349999999976
20
91.463710957337426
42
-0.41421356237308982
10
-239.48349999999976
20
90.463710957337412
10
-256.53349999999972
20
90.463710957337398
42
0.41421356237306384
10
-257.53349999999972
20
89.463710957337412
10
-257.53349999999972
20
72.413610957337426
42
-0.4142135623731002
0
LWPOLYLINE
5
102
100
AcDbEntity
8
0
100
AcDbPolyline
90
8
70
1
43
0.0
10
9.1706500000000108
20
-8.5511890426625037
42
-0.41421356237309637
10
8.1706500000000144
20
-9.5511890426624984
10
-8.8834999999999535
20
-9.5511890426624984
42
-0.41421356237310053
10
-9.8834999999999678
20
-8.5511890426625037
10
-9.8834999999999589
20
8.5008109573374782
42
-0.41421356237310281
10
-8.8834999999999553
20
9.5008109573374515
10
8.1706500000000126
20
9.5008109573374639
42
-0.41421356237309925
10
9.1706500000000126
20
8.5008109573374746
0
LWPOLYLINE
5
103
100
AcDbEntity
8
0
100
AcDbPolyline
90
8
70
1
43
0.0
10
-190.85849999999976
20
8.5008109573374746
42
-0.41421356237309892
10
-189.85849999999976
20
9.5008109573374693
10
-115.65449999999984
20
9.5008109573374711
42
-0.41421356237307944
10
-114.65449999999987
20
8.5008109573374746
10
-114.65449999999987
20
-8.5511890426625072
42
-0.41421356237309337
10
-115.65449999999986
20
-9.5511890426624984
10
-189.85849999999982
20
-9.5511890426624984
42
-0.41421356237305795
10
-190.85849999999979
20
-8.5511890426625037
0
LWPOLYLINE
5
104
100
AcDbEntity
8
0
100
AcDbPolyline
90
8
70
1
43
0.0
10
-276.58349999999973
20
8.5008109573374746
42
-0.41421356237312817
10
-275.58349999999973
20
9.5008109573374693
10
-201.38049999999981
20
9.5008109573374568
42
-0.4142135623730856
10
-200.38049999999981
20
8.5008109573374746
10
-200.38049999999981
20
-8.5511890426625072
42
-0.41421356237307061
10
-201.38049999999981
20
-9.5511890426624984
10
-275.58349999999973
20
-9.5511890426625108
42
-0.414213562373072
10
-276.58349999999973
20
-8.5511890426625037
0
LWPOLYLINE
5
105
100
AcDbEntity
8
0
100
AcDbPolyline
90
8
70
1
43
0.0
10
-287.10549999999967
20
90.463710957337398
42
-0.41421356237305862
10
-286.10549999999972
20
89.463710957337398
10
-286.10549999999972
20
15.260810957337476
42
-0.41421356237307161
10
-287.10549999999972
20
14.26081095733748
10
-304.15849999999972
20
14.260810957337469
42
-0.41421356237304108
10
-305.15849999999966
20
15.260810957337476
10
-305.15849999999966
20
89.463710957337412
42
-0.41421356237307422
10
-304.15849999999966
20
90.463710957337412
0
LWPOLYLINE
5
106
100
AcDbEntity
8
0
100
AcDbPolyline
90
8
70
1
43
0.0
10
-287.10549999999972
20
9.5008109573374568
42
-0.4142135623730856
10
-286.10549999999972
20
8.5008109573374746
10
-286.10549999999972
20
-8.5511890426625072
42
-0.41421356237307061
10
-287.10549999999972
20
-9.5511890426624984
10
-304.15849999999972
20
-9.5511890426624806
42
-0.41421356237305273
10
-305.15849999999966
20
-8.5511890426625037
10
-305.15849999999966
20
8.5008109573374782
42
-0.41421356237308204
10
-304.15849999999966
20
9.5008109573374693
0
LWPOLYLINE
5
107
100
AcDbEntity
8
0
100
AcDbPolyline
90
16
70
1
43
0.0
10
-261.29349999999977
20
95.223410957337393
10
-244.24349999999976
20
95.223410957337421
42
0.41421356237310542
10
-243.24349999999976
20
96.223410957337421
10
-243.24349999999976
20
113.2762109573374
42
0.41421356237310542
10
-244.24349999999976
20
114.2762109573374
10
-299.39449999999965
20
114.2762109573374
42
0.41421356237310542
10
-300.39449999999965
20
113.2762109573374
10
-300.39449999999965
20
96.223410957337421
42
0.41421356237310542
10
-299.39449999999965
20
95.223410957337421
10
-282.34449999999975
20
95.223410957337393
42
-0.41421356237308465
10
-281.34449999999975
20
94.223410957337421
10
-281.34449999999975
20
77.17471095733741
42
0.41421356237307683
10
-280.3444999999997
20
76.174710957337425
10
-263.29349999999971
20
76.174710957337425
42
0.41421356237307422
10
-262.29349999999971
20
77.174710957337425
10
-262.29349999999971
20
94.223410957337407
42
-0.41421356237307944
0
LWPOLYLINE
5
108
100
AcDbEntity
8
0
100
AcDbPolyline
90
8
70
1
43
0.0
10
-309.65749999999969
20
-16.549189042662498
10
-309.65749999999963
20
121.27662995733741
42
-0.41421356237308465
10
-307.15749999999969
20
123.77662995733741
10
11.167415400000042
20
123.77662995733741
42
-0.4142135623730917
10
13.667415400000015
20
121.27662995733741
10
13.66741540000001
20
-16.549189042662498
42
-0.41421356237308882
10
11.167415400000031
20
-19.049189042662498
10
-307.15749999999969
20
-19.049189042662537
42
-0.41421356237309137
0
LWPOLYLINE
5
109
100
AcDbEntity
8
0
100
AcDbPolyline
90
8
70
1
43
0.0
10
13.667415400000015
20
121.27662995733741
10
13.66741540000001
20
-16.549189042662498
42
-0.41421356237308882
10
11.167415400000031
20
-19.049189042662498
10
-307.15749999999969
20
-19.049189042662537
42
-0.41421356237309137
10
-309.65749999999969
20
-16.549189042662498
10
-309.65749999999963
20
121.27662995733741
42
-0.41421356237308465
10
-307.15749999999969
20
123.77662995733741
10
11.167415400000042
20
123.77662995733741
42
-0.4142135623730917
0
LWPOLYLINE
5
110
100
AcDbEntity
8
0
100
AcDbPolyline
90
8
70
1
43
0.0
10
-8.8834999999999535
20
-9.5511890426624984
42
-0.41421356237310053
10
-9.8834999999999678
20
-8.5511890426625037
10
-9.8834999999999589
20
8.5008109573374782
42
-0.41421356237310281
10
-8.8834999999999553
20
9.5008109573374515
10
8.1706500000000126
20
9.5008109573374639
42
-0.41421356237309925
10
9.1706500000000126
20
8.5008109573374746
10
9.1706500000000108
20
-8.5511890426625037
42
-0.41421356237309637
10
8.1706500000000144
20
-9.5511890426624984
0
LWPOLYLINE
5
111
100
AcDbEntity
8
0
100
AcDbPolyline
90
8
70
1
43
0.0
10
-104.13149999999987
20
-9.5511890426624984
42
-0.41421356237308954
10
-105.13149999999985
20
-8.5511890426625037
10
-105.13149999999985
20
8.5008109573374746
42
-0.4142135623730947
10
-104.13149999999986
20
9.5008109573374693
10
-29.930899999999916
20
9.5008109573374515
42
-0.41421356237309309
10
-28.930899999999941
20
8.5008109573374746
10
-28.930899999999937
20
-8.5511890426625072
42
-0.41421356237309009
10
-29.930899999999934
20
-9.5511890426624984
0
LWPOLYLINE
5
112
100
AcDbEntity
8
0
100
AcDbPolyline
90
8
70
1
43
0.0
10
-189.85849999999982
20
-9.5511890426624984
42
-0.41421356237305795
10
-190.85849999999979
20
-8.5511890426625037
10
-190.85849999999976
20
8.5008109573374746
42
-0.41421356237309892
10
-189.85849999999976
20
9.5008109573374693
10
-115.65449999999984
20
9.5008109573374711
42
-0.41421356237307944
10
-114.65449999999987
20
8.5008109573374746
10
-114.65449999999987
20
-8.5511890426625072
42
-0.41421356237309337
10
-115.65449999999986
20
-9.5511890426624984
0
LWPOLYLINE
5
113
100
AcDbEntity
8
0
100
AcDbPolyline
90
8
70
1
43
0.0
10
-275.58349999999973
20
-9.5511890426625108
42
-0.414213562373072
10
-276.58349999999973
20
-8.5511890426625037
10
-276.58349999999973
20
8.5008109573374746
42
-0.41421356237312817
10
-275.58349999999973
20
9.5008109573374693
10
-201.38049999999981
20
9.5008109573374568
42
-0.4142135623730856
10
-200.38049999999981
20
8.5008109573374746
10
-200.38049999999981
20
-8.5511890426625072
42
-0.41421356237307061
10
-201.38049999999981
20
-9.5511890426624984
0
LWPOLYLINE
5
114
100
AcDbEntity
8
0
100
AcDbPolyline
90
8
70
1
43
0.0
10
-304.15849999999972
20
-9.5511890426624806
42
-0.41421356237305273
10
-305.15849999999966
20
-8.5511890426625037
10
-305.15849999999966
20
8.5008109573374782
42
-0.41421356237308204
10
-304.15849999999966
20
9.5008109573374693
10
-287.10549999999972
20
9.5008109573374568
42
-0.4142135623730856
10
-286.10549999999972
20
8.5008109573374746
10
-286.10549999999972
20
-8.5511890426625072
42
-0.41421356237307061
10
-287.10549999999972
20
-9.5511890426624984
0
LWPOLYLINE
5
115
100
AcDbEntity
8
0
100
AcDbPolyline
90
8
70
1
43
0.0
10
-286.10549999999972
20
15.260810957337476
42
-0.41421356237307161
10
-287.10549999999972
20
14.26081095733748
10
-304.15849999999972
20
14.260810957337469
42
-0.41421356237304108
10
-305.15849999999966
20
15.260810957337476
10
-305.15849999999966
20
89.463710957337412
42
-0.41421356237307422
10
-304.15849999999966
20
90.463710957337412
10
-287.10549999999967
20
90.463710957337398
42
-0.41421356237305862
10
-286.10549999999972
20
89.463710957337398
0
LWPOLYLINE
5
116
100
AcDbEntity
8
0
100
AcDbPolyline
90
16
70
1
43
0.0
10
-280.3444999999997
20
76.174710957337425
42
-0.41421356237307683
10
-281.34449999999975
20
77.17471095733741
10
-281.34449999999975
20
94.223410957337421
42
0.41421356237308465
10
-282.34449999999975
20
95.223410957337393
10
-299.39449999999965
20
95.223410957337435
42
-0.41421356237310542
10
-300.39449999999965
20
96.223410957337421
10
-300.39449999999965
20
113.2762109573374
42
-0.41421356237310542
10
-299.39449999999965
20
114.2762109573374
10
-244.24349999999976
20
114.27621095733738
42
-0.41421356237310542
10
-243.24349999999976
20
113.2762109573374
10
-243.24349999999976
20
96.223410957337421
42
-0.41421356237310542
10
-244.24349999999976
20
95.223410957337421
10
-261.29349999999977
20
95.223410957337393
42
0.41421356237307944
10
-262.29349999999971
20
94.223410957337407
10
-262.29349999999971
20
77.174710957337425
42
-0.41421356237307422
10
-263.29349999999971
20
76.174710957337425
0
LWPOLYLINE
5
117
100
AcDbEntity
8
0
100
AcDbPolyline
90
22
70
1
43
0.0
10
-276.58349999999973
20
70.41361095733744
42
-0.41421356237307161
10
-275.58349999999973
20
71.41361095733744
10
-258.53349999999978
20
71.41361095733744
42
0.4142135623731002
10
-257.53349999999972
20
72.413610957337426
10
-257.53349999999972
20
89.463710957337412
42
-0.41421356237306384
10
-256.53349999999972
20
90.463710957337398
10
-239.48349999999976
20
90.463710957337412
42
0.41421356237308982
10
-238.48349999999976
20
91.463710957337426
10
-238.48349999999976
20
108.51371095733739
42
-0.41421356237310542
10
-237.48349999999974
20
109.51371095733739
10
8.1692699999999974
20
109.51371095733739
42
-0.41421356237310153
10
9.1692700000000134
20
108.51371095733739
10
9.1692700000000311
20
90.463710957337398
10
9.1706500000000286
20
90.463710957337412
10
9.1706500000000286
20
52.360810957337435
10
9.1692700000000311
20
52.360810957337435
10
9.1692700000000311
20
33.31361095733746
10
9.1706500000000286
20
33.31361095733746
10
9.1706500000000197
20
15.260810957337473
42
-0.41421356237310153
10
8.1706500000000304
20
14.260810957337462
10
-275.58349999999967
20
14.260810957337441
42
-0.41421356237307549
10
-276.58349999999973
20
15.260810957337494
0
ENDSEC
0
SECTION
2
OBJECTS
0
DICTIONARY
5
C
100
AcDbDictionary
3
ACAD_GROUP
350
D
3
ACAD_MLINESTYLE
350
17
0
DICTIONARY
5
D
100
AcDbDictionary
0
DICTIONARY
5
1A
330
C
100
AcDbDictionary
0
DICTIONARY
5
17
100
AcDbDictionary
0
ENDSEC
0
EOF
