<?xml version="1.0" encoding="UTF-8" standalone="no"?>
<!-- Created with Inkscape (http://www.inkscape.org/) -->

<svg
   width="167.73624mm"
   height="69.103714mm"
   viewBox="0 0 167.73624 69.103714"
   version="1.1"
   id="svg5"
   inkscape:version="1.1 (c4e8f9e, 2021-05-24)"
   sodipodi:docname="luna.svg"
   xmlns:inkscape="http://www.inkscape.org/namespaces/inkscape"
   xmlns:sodipodi="http://sodipodi.sourceforge.net/DTD/sodipodi-0.dtd"
   xmlns="http://www.w3.org/2000/svg"
   xmlns:svg="http://www.w3.org/2000/svg">
  <sodipodi:namedview
     id="namedview7"
     pagecolor="#ffffff"
     bordercolor="#666666"
     borderopacity="1.0"
     inkscape:pageshadow="2"
     inkscape:pageopacity="0.0"
     inkscape:pagecheckerboard="0"
     inkscape:document-units="mm"
     showgrid="false"
     inkscape:zoom="0.51616027"
     inkscape:cx="217.95556"
     inkscape:cy="88.150915"
     inkscape:window-width="1312"
     inkscape:window-height="997"
     inkscape:window-x="297"
     inkscape:window-y="25"
     inkscape:window-maximized="0"
     inkscape:current-layer="layer1"
     fit-margin-top="0"
     fit-margin-left="0"
     fit-margin-right="0"
     fit-margin-bottom="0" />
  <defs
     id="defs2" />
  <g
     inkscape:label="Layer 1"
     inkscape:groupmode="layer"
     id="layer1"
     transform="translate(-16.560025,-11.664282)">
    <path
       id="path31"
       style="fill:none;stroke:#000000;stroke-width:1.09471;stroke-miterlimit:4;stroke-dasharray:none;stroke-opacity:1"
       d="M 80.684791,62.984132 A 5.2615923,5.2615923 0 0 0 80.588226,62.892126 5.2615923,5.2615923 0 0 0 80.487933,62.801365 5.2615923,5.2615923 0 0 0 80.384737,62.713502 5.2615923,5.2615923 0 0 0 80.279884,62.627714 5.2615923,5.2615923 0 0 0 80.172545,62.545242 5.2615923,5.2615923 0 0 0 80.063133,62.465253 5.2615923,5.2615923 0 0 0 79.951648,62.388168 5.2615923,5.2615923 0 0 0 79.838092,62.313983 5.2615923,5.2615923 0 0 0 79.722879,62.2427 5.2615923,5.2615923 0 0 0 79.606007,62.174732 5.2615923,5.2615923 0 0 0 79.487062,62.109251 5.2615923,5.2615923 0 0 0 79.366876,62.047085 5.2615923,5.2615923 0 0 0 79.244616,61.988236 5.2615923,5.2615923 0 0 0 79.121113,61.932284 5.2615923,5.2615923 0 0 0 78.996366,61.879652 5.2615923,5.2615923 0 0 0 78.870377,61.830335 5.2615923,5.2615923 0 0 0 78.743144,61.783915 5.2615923,5.2615923 0 0 0 78.614254,61.741228 5.2615923,5.2615923 0 0 0 78.484951,61.701858 5.2615923,5.2615923 0 0 0 78.354401,61.665387 5.2615923,5.2615923 0 0 0 78.22261,61.632645 5.2615923,5.2615923 0 0 0 78.090404,61.603221 5.2615923,5.2615923 0 0 0 77.957783,61.577112 5.2615923,5.2615923 0 0 0 77.823919,61.554732 5.2615923,5.2615923 0 0 0 77.690055,61.535667 5.2615923,5.2615923 0 0 0 77.555364,61.519918 5.2615923,5.2615923 0 0 0 77.420257,61.507899 5.2615923,5.2615923 0 0 0 77.285149,61.499197 5.2615923,5.2615923 0 0 0 77.149628,61.493809 5.2615923,5.2615923 0 0 0 77.014107,61.49215 5.2615923,5.2615923 0 0 0 76.621217,61.506656 5.2615923,5.2615923 0 0 0 76.229987,61.551002 5.2615923,5.2615923 0 0 0 75.843317,61.623943 5.2615923,5.2615923 0 0 0 75.463276,61.725895 5.2615923,5.2615923 0 0 0 75.091938,61.855615 5.2615923,5.2615923 0 0 0 74.731376,62.0131 5.2615923,5.2615923 0 0 0 74.383662,62.197111 5.2615923,5.2615923 0 0 0 74.050454,62.406404 5.2615923,5.2615923 0 0 0 73.733822,62.640146 5.2615923,5.2615923 0 0 0 73.435426,62.896686 5.2615923,5.2615923 0 0 0 73.157337,63.174773 5.2615923,5.2615923 0 0 0 72.9008,63.473168 5.2615923,5.2615923 0 0 0 72.667057,63.789801 5.2615923,5.2615923 0 0 0 72.457765,64.123009 5.2615923,5.2615923 0 0 0 72.273753,64.470723 5.2615923,5.2615923 0 0 0 72.116266,64.831285 5.2615923,5.2615923 0 0 0 71.986549,65.202622 5.2615923,5.2615923 0 0 0 71.884597,65.582664 5.2615923,5.2615923 0 0 0 71.811655,65.969333 5.2615923,5.2615923 0 0 0 71.767309,66.360564 5.2615923,5.2615923 0 0 0 71.752803,66.753453 5.2615923,5.2615923 0 0 0 71.767309,67.146755 5.2615923,5.2615923 0 0 0 71.811655,67.537985 5.2615923,5.2615923 0 0 0 71.884597,67.924658 5.2615923,5.2615923 0 0 0 71.986549,68.304697 5.2615923,5.2615923 0 0 0 72.116266,68.676034 5.2615923,5.2615923 0 0 0 72.273753,69.036596 5.2615923,5.2615923 0 0 0 72.457765,69.38431 5.2615923,5.2615923 0 0 0 72.667057,69.717521 5.2615923,5.2615923 0 0 0 72.9008,70.03415 5.2615923,5.2615923 0 0 0 73.157337,70.332546 5.2615923,5.2615923 0 0 0 73.435426,70.610636 5.2615923,5.2615923 0 0 0 73.733822,70.867174 5.2615923,5.2615923 0 0 0 74.050454,71.100917 5.2615923,5.2615923 0 0 0 74.188875,71.187948 34.004618,34.004618 0 0 0 80.684791,62.984132 Z" />
    <path
       id="path959"
       style="fill:none;stroke:#000000;stroke-width:1.09471;stroke-miterlimit:4;stroke-dasharray:none;stroke-opacity:1"
       d="M 63.188424,14.428472 A 2.7184895,2.7184895 0 0 0 63.172261,14.444635 2.7184895,2.7184895 0 0 0 62.807971,15.803994 2.7184895,2.7184895 0 0 0 63.172261,17.16294 2.7184895,2.7184895 0 0 0 64.16733,18.158007 2.7184895,2.7184895 0 0 0 65.526274,18.522299 2.7184895,2.7184895 0 0 0 66.885633,18.158007 2.7184895,2.7184895 0 0 0 67.880703,17.16294 2.7184895,2.7184895 0 0 0 68.003789,16.704156 34.004618,34.004618 0 0 0 63.188424,14.428472 Z" />
    <path
       id="path964"
       style="fill:none;stroke:#000000;stroke-width:1.09471;stroke-miterlimit:4;stroke-dasharray:none;stroke-opacity:1"
       d="M 51.112091,12.211637 A 34.004618,34.004618 0 0 0 17.10738,46.216348 34.004618,34.004618 0 0 0 51.112091,80.220644 34.004618,34.004618 0 0 0 74.188875,71.187948 5.2615923,5.2615923 0 0 1 74.050454,71.100917 5.2615923,5.2615923 0 0 1 73.733822,70.867174 5.2615923,5.2615923 0 0 1 73.435426,70.610636 5.2615923,5.2615923 0 0 1 73.157337,70.332546 5.2615923,5.2615923 0 0 1 72.9008,70.03415 5.2615923,5.2615923 0 0 1 72.667057,69.717521 5.2615923,5.2615923 0 0 1 72.457765,69.38431 5.2615923,5.2615923 0 0 1 72.273753,69.036596 5.2615923,5.2615923 0 0 1 72.116266,68.676034 5.2615923,5.2615923 0 0 1 71.986549,68.304697 5.2615923,5.2615923 0 0 1 71.884597,67.924658 5.2615923,5.2615923 0 0 1 71.811655,67.537985 5.2615923,5.2615923 0 0 1 71.767309,67.146755 5.2615923,5.2615923 0 0 1 71.752803,66.753453 5.2615923,5.2615923 0 0 1 71.767309,66.360564 5.2615923,5.2615923 0 0 1 71.811655,65.969333 5.2615923,5.2615923 0 0 1 71.884597,65.582664 5.2615923,5.2615923 0 0 1 71.986549,65.202622 5.2615923,5.2615923 0 0 1 72.116266,64.831285 5.2615923,5.2615923 0 0 1 72.273753,64.470723 5.2615923,5.2615923 0 0 1 72.457765,64.123009 5.2615923,5.2615923 0 0 1 72.667057,63.789801 5.2615923,5.2615923 0 0 1 72.9008,63.473168 5.2615923,5.2615923 0 0 1 73.157337,63.174773 5.2615923,5.2615923 0 0 1 73.435426,62.896686 5.2615923,5.2615923 0 0 1 73.733822,62.640146 5.2615923,5.2615923 0 0 1 74.050454,62.406404 5.2615923,5.2615923 0 0 1 74.383662,62.197111 5.2615923,5.2615923 0 0 1 74.731376,62.0131 5.2615923,5.2615923 0 0 1 75.091938,61.855615 5.2615923,5.2615923 0 0 1 75.463276,61.725895 5.2615923,5.2615923 0 0 1 75.843317,61.623943 5.2615923,5.2615923 0 0 1 76.229987,61.551002 5.2615923,5.2615923 0 0 1 76.621217,61.506656 5.2615923,5.2615923 0 0 1 77.014107,61.49215 5.2615923,5.2615923 0 0 1 77.149628,61.493809 5.2615923,5.2615923 0 0 1 77.285149,61.499197 5.2615923,5.2615923 0 0 1 77.420257,61.507899 5.2615923,5.2615923 0 0 1 77.555364,61.519918 5.2615923,5.2615923 0 0 1 77.690055,61.535667 5.2615923,5.2615923 0 0 1 77.823919,61.554732 5.2615923,5.2615923 0 0 1 77.957783,61.577112 5.2615923,5.2615923 0 0 1 78.090404,61.603221 5.2615923,5.2615923 0 0 1 78.22261,61.632645 5.2615923,5.2615923 0 0 1 78.354401,61.665387 5.2615923,5.2615923 0 0 1 78.484951,61.701858 5.2615923,5.2615923 0 0 1 78.614254,61.741228 5.2615923,5.2615923 0 0 1 78.743144,61.783915 5.2615923,5.2615923 0 0 1 78.870377,61.830335 5.2615923,5.2615923 0 0 1 78.996366,61.879652 5.2615923,5.2615923 0 0 1 79.121113,61.932284 5.2615923,5.2615923 0 0 1 79.244616,61.988236 5.2615923,5.2615923 0 0 1 79.366876,62.047085 5.2615923,5.2615923 0 0 1 79.487062,62.109251 5.2615923,5.2615923 0 0 1 79.606007,62.174732 5.2615923,5.2615923 0 0 1 79.722879,62.2427 5.2615923,5.2615923 0 0 1 79.838092,62.313983 5.2615923,5.2615923 0 0 1 79.951648,62.388168 5.2615923,5.2615923 0 0 1 80.063133,62.465253 5.2615923,5.2615923 0 0 1 80.172545,62.545242 5.2615923,5.2615923 0 0 1 80.279884,62.627714 5.2615923,5.2615923 0 0 1 80.384737,62.713502 5.2615923,5.2615923 0 0 1 80.487933,62.801365 5.2615923,5.2615923 0 0 1 80.588226,62.892126 5.2615923,5.2615923 0 0 1 80.684791,62.984132 34.004618,34.004618 0 0 0 85.116387,46.216348 34.004618,34.004618 0 0 0 68.003789,16.704156 2.7184895,2.7184895 0 0 1 67.880703,17.16294 2.7184895,2.7184895 0 0 1 66.885633,18.158007 2.7184895,2.7184895 0 0 1 65.526274,18.522299 2.7184895,2.7184895 0 0 1 64.16733,18.158007 2.7184895,2.7184895 0 0 1 63.172261,17.16294 2.7184895,2.7184895 0 0 1 62.807971,15.803994 2.7184895,2.7184895 0 0 1 63.172261,14.444635 2.7184895,2.7184895 0 0 1 63.188424,14.428472 34.004618,34.004618 0 0 0 51.112091,12.211637 Z" />
    <circle
       style="fill:none;stroke:#000000;stroke-width:1.09471;stroke-miterlimit:4;stroke-dasharray:none;stroke-opacity:1"
       id="path892"
       cx="34.663208"
       cy="47.481506"
       r="6.1682796" />
    <circle
       style="fill:none;stroke:#000000;stroke-width:1.09471;stroke-miterlimit:4;stroke-dasharray:none;stroke-opacity:1"
       id="path894"
       cx="68.509651"
       cy="35.144936"
       r="7.1172452" />
    <circle
       style="fill:none;stroke:#000000;stroke-width:1.09471;stroke-miterlimit:4;stroke-dasharray:none;stroke-opacity:1"
       id="path898"
       cx="46.525284"
       cy="30.241949"
       r="3.479542" />
    <circle
       style="fill:none;stroke:#000000;stroke-width:1.09471;stroke-miterlimit:4;stroke-dasharray:none;stroke-opacity:1"
       id="path900"
       cx="49.214016"
       cy="73.736229"
       r="2.3724153" />
    <circle
       style="fill:none;stroke:#000000;stroke-width:1.09471;stroke-miterlimit:4;stroke-dasharray:none;stroke-opacity:1"
       id="path902"
       cx="65.188271"
       cy="55.547718"
       r="2.5305765" />
    <circle
       style="fill:none;stroke:#000000;stroke-width:1.09471;stroke-miterlimit:4;stroke-dasharray:none;stroke-opacity:1"
       id="path904"
       cx="25.964342"
       cy="55.547718"
       r="1.8979322" />
    <circle
       style="fill:none;stroke:#000000;stroke-width:1.09471;stroke-miterlimit:4;stroke-dasharray:none;stroke-opacity:1"
       id="path906"
       cx="58.387356"
       cy="27.553215"
       r="0.7908051" />
    <circle
       style="fill:none;stroke:#000000;stroke-width:1.09471;stroke-miterlimit:4;stroke-dasharray:none;stroke-opacity:1"
       id="path910"
       cx="37.193775"
       cy="21.226772"
       r="1.1071272" />
    <circle
       style="fill:none;stroke:#000000;stroke-width:1.09471;stroke-miterlimit:4;stroke-dasharray:none;stroke-opacity:1"
       id="path912"
       cx="52.060905"
       cy="46.848858"
       r="0.7908051" />
    <circle
       style="fill:none;stroke:#000000;stroke-width:1.09471;stroke-miterlimit:4;stroke-dasharray:none;stroke-opacity:1"
       id="path914"
       cx="45.418152"
       cy="58.552776"
       r="2.3724153" />
    <circle
       style="fill:none;stroke:#000000;stroke-width:1.09471;stroke-miterlimit:4;stroke-dasharray:none;stroke-opacity:1"
       id="path916"
       cx="54.907806"
       cy="55.073235"
       r="0.7908051" />
    <circle
       style="fill:none;stroke:#000000;stroke-width:1.09471;stroke-miterlimit:4;stroke-dasharray:none;stroke-opacity:1"
       id="path918"
       cx="63.448513"
       cy="65.195541"
       r="0.7908051" />
    <circle
       style="fill:none;stroke:#000000;stroke-width:1.09471;stroke-miterlimit:4;stroke-dasharray:none;stroke-opacity:1"
       id="path951"
       cx="33.081589"
       cy="33.879654"
       r="1.1071272" />
    <path
       id="text2862"
       style="font-size:70.5556px;line-height:1.25;font-family:'Lao Sangam MN';-inkscape-font-specification:'Lao Sangam MN';stroke-width:0.999999"
       d="M 372.40039,125.2168 C 369.35378,127.29331 365.30173,129.51929 360.30664,131.12891 360.55604,139.94411 360.80724,148.71182 361.05664,158.06445 361.57747,171.0853 362.0102,184.01996 362.35742,196.86719 362.70464,209.54081 363.05317,220.99913 363.40039,231.24219 363.92122,241.31164 364.2678,249.55881 364.44141,255.98242 364.78863,262.23243 365.04905,265.44358 365.22266,265.61719 L 369.65039,271.08594 C 371.3865,270.91233 372.60048,270.30534 373.29492,269.26367 374.16298,268.04839 374.77192,266.74631 375.11914,265.35742 375.46636,263.96853 375.63867,262.57834 375.63867,261.18945 375.63867,259.62695 375.72678,258.32487 375.90039,257.2832 V 254.93945 C 376.074,253.72417 376.16016,252.5102 376.16016,251.29492 376.33377,250.07964 376.41992,249.03798 376.41992,248.16992 376.59353,247.30187 376.68164,246.69293 376.68164,246.3457 376.50803,243.2207 376.33377,238.70747 376.16016,232.80469 375.98655,226.90191 375.72613,220.13108 375.37891,212.49219 375.2053,204.85329 374.94488,196.60613 374.59766,187.75195 374.42405,178.89778 374.16363,169.95747 373.81641,160.92969 373.46918,151.9019 373.12261,142.95964 372.77539,134.10547 372.65063,130.92409 372.52515,128.24128 372.40039,125.2168 Z M 563.16406,142.35742 C 559.02452,142.28147 555.28342,143.00434 551.94141,144.52344 548.29557,146.25955 544.99631,148.68945 542.04492,151.81445 539.09353,154.93946 536.57748,158.58528 534.49414,162.75195 532.58442,166.74501 530.93381,170.82552 529.54492,174.99219 528.15603,179.15886 527.11437,183.23741 526.41992,187.23047 525.72548,191.22353 525.20464,194.69705 524.85742,197.64844 V 191.6582 C 524.85742,188.70681 524.68511,185.49566 524.33789,182.02344 524.16428,178.55121 523.81576,175.07769 523.29492,171.60547 522.77409,168.13324 521.90668,165.26866 520.69141,163.01172 519.47613,160.58116 517.91363,159.01866 516.00391,158.32422 514.26779,157.62977 512.09831,158.32487 509.49414,160.4082 V 161.9707 164.05469 C 509.66775,164.92274 509.75391,165.70399 509.75391,166.39844 509.92752,167.09288 510.01367,167.52561 510.01367,167.69922 510.53451,170.477 510.88303,174.55751 511.05664,179.93945 511.40386,185.14779 511.66428,191.05121 511.83789,197.64844 512.0115,204.24566 512.18381,211.19075 512.35742,218.48242 512.53103,225.77409 512.7053,232.80533 512.87891,239.57617 513.22613,246.1734 513.48655,252.16297 513.66016,257.54492 514.00738,262.75326 514.35395,266.74566 514.70117,269.52344 514.87478,269.69705 515.39562,269.87131 516.26367,270.04492 L 519.38867,270.56445 H 522.51367 C 523.55534,270.56445 524.25043,270.65256 524.59766,270.82617 524.77127,258.67339 525.46636,246.25956 526.68164,233.58594 528.07053,220.73871 530.15386,208.84571 532.93164,197.9082 535.88303,186.9707 539.70117,177.42145 544.38867,169.26172 549.24979,161.10199 555.23936,155.54709 562.35742,152.5957 569.30187,152.5957 574.94488,154.8533 579.28516,159.36719 583.62544,163.70747 586.92469,169.43663 589.18164,176.55469 591.6122,183.49914 593.26085,191.22547 594.12891,199.73242 594.99696,208.23937 595.43164,216.48459 595.43164,224.4707 595.60525,232.45682 595.43099,239.74848 594.91016,246.3457 594.56293,252.76932 594.30252,257.54492 594.12891,260.66992 593.43446,265.0102 593.2602,267.96094 593.60742,269.52344 594.12826,270.91233 594.9095,271.60742 595.95117,271.60742 596.99284,271.78103 598.29492,271.52062 599.85742,270.82617 601.41992,269.95812 602.98242,269.34918 604.54492,269.00195 604.54492,260.14778 604.63303,250.94706 604.80664,241.39844 604.98025,231.67621 604.80599,222.12696 604.28516,212.75195 603.93793,203.37695 603.07053,194.52279 601.68164,186.18945 600.46636,177.85611 598.38303,170.4783 595.43164,164.05469 592.65386,157.63107 588.74762,152.5089 583.71289,148.68945 578.85178,144.87001 572.60178,142.78668 564.96289,142.43945 564.35525,142.39605 563.75543,142.36827 563.16406,142.35742 Z M 661.83789,150.25195 C 658.71289,150.25195 655.06706,150.51237 650.90039,151.0332 646.73372,151.55404 642.73937,152.5957 638.91992,154.1582 635.10047,155.7207 631.80317,157.9783 629.02539,160.92969 626.42122,163.70747 625.11914,167.26519 625.11914,171.60547 628.76498,171.60547 632.15039,171.08464 635.27539,170.04297 638.40039,168.82769 641.52539,167.52561 644.65039,166.13672 647.77539,164.74783 650.90039,163.44575 654.02539,162.23047 657.15039,161.01519 660.5358,160.4082 664.18164,160.4082 669.38998,162.83876 673.12196,166.39843 675.37891,171.08594 677.80946,175.77344 679.37196,180.72135 680.06641,185.92969 680.93446,191.13802 681.36914,196.2602 681.36914,201.29492 681.36914,206.15604 681.4553,210.14844 681.62891,213.27344 V 216.91992 222.12695 C 681.62891,224.03668 681.54275,225.85959 681.36914,227.5957 V 230.7207 C 678.41775,228.11653 675.55317,226.12131 672.77539,224.73242 670.17122,223.34353 667.47895,222.30187 664.70117,221.60742 661.92339,220.91298 658.97266,220.4783 655.84766,220.30469 652.89627,220.13108 649.68512,220.04492 646.21289,220.04492 637.35872,220.04492 630.15322,222.30056 624.59766,226.81445 619.21571,231.32835 616.52539,238.53385 616.52539,248.42969 616.52539,251.90191 617.30664,255.11306 618.86914,258.06445 620.60525,260.84223 622.77474,263.27409 625.37891,265.35742 628.15669,267.26715 631.10742,268.74154 634.23242,269.7832 637.53104,270.82487 640.74414,271.3457 643.86914,271.3457 646.2997,271.3457 649.33659,271.25955 652.98242,271.08594 656.62826,270.91233 660.44835,270.65191 664.44141,270.30469 668.43446,269.95747 672.34071,269.43663 676.16016,268.74219 680.15321,267.87413 683.71289,266.91862 686.83789,265.87695 689.96289,264.66167 692.39279,263.27344 694.12891,261.71094 696.03863,259.97483 696.81988,257.97765 696.47266,255.7207 695.77821,238.7068 694.8227,224.38391 693.60742,212.75195 692.56575,200.94639 691.26367,191.22483 689.70117,183.58594 688.31228,175.94704 686.57748,170.04362 684.49414,165.87695 682.58442,161.53667 680.41298,158.32552 677.98242,156.24219 675.72548,154.15885 673.20942,152.76866 670.43164,152.07422 667.82747,151.37977 664.96289,150.77279 661.83789,150.25195 Z M 487.09766,163.5332 471.47266,165.35547 C 473.38238,171.43186 474.07747,178.37695 473.55664,186.18945 473.03581,194.00196 471.55946,201.81445 469.12891,209.62695 466.87196,217.43946 463.83312,224.73112 460.01367,231.50195 456.36784,238.27279 452.37544,243.65538 448.03516,247.64844 443.69488,251.46788 439.2678,253.37695 434.75391,253.37695 430.24001,253.20334 425.9872,250.16645 421.99414,244.26367 418.17469,238.36089 414.70117,229.07206 411.57617,216.39844 408.62478,203.55121 406.62956,186.36373 405.58789,164.83594 404.89345,164.14149 403.76367,163.88108 402.20117,164.05469 400.63867,164.2283 398.99002,164.57487 397.25391,165.0957 395.69141,165.61654 394.30317,166.31163 393.08789,167.17969 392.04622,168.04774 391.52539,168.91515 391.52539,169.7832 392.74067,188.01238 394.64974,203.37694 397.25391,215.87695 399.85807,228.37696 402.89692,238.62131 406.36914,246.60742 410.01498,254.41993 413.92122,260.14909 418.08789,263.79492 422.25456,267.44076 426.50738,269.52409 430.84766,270.04492 435.36155,270.39214 439.87478,269.43663 444.38867,267.17969 448.90256,264.74913 453.15733,261.44987 457.15039,257.2832 461.31706,253.11653 465.1352,248.25673 468.60742,242.70117 472.07965,237.14561 475.03233,231.32835 477.46289,225.25195 L 489.70117,270.30469 H 500.90039 C 500.90039,269.08941 500.55187,266.05057 499.85742,261.18945 499.16298,256.15473 498.38173,250.16515 497.51367,243.2207 496.64562,236.10264 495.60395,228.46442 494.38867,220.30469 493.17339,212.14496 492.04557,204.33247 491.00391,196.86719 490.13585,189.22829 489.26845,182.45747 488.40039,176.55469 487.70595,170.47829 487.27127,166.13737 487.09766,163.5332 Z M 650.37891,230.20117 C 654.02474,230.20117 657.324,230.37348 660.27539,230.7207 663.22678,231.06793 665.9171,231.93728 668.34766,233.32617 670.77821,234.71506 673.03581,236.79839 675.11914,239.57617 677.20248,242.18034 679.28581,245.99848 681.36914,251.0332 675.81358,255.89432 669.99631,259.19358 663.91992,260.92969 657.84353,262.49219 652.20248,262.92687 646.99414,262.23242 641.7858,261.36437 637.35873,259.71376 633.71289,257.2832 630.06705,254.67903 627.98372,251.81446 627.46289,248.68945 627.11567,245.56445 628.67817,242.3533 632.15039,239.05469 635.62262,235.58246 641.69834,232.63173 650.37891,230.20117 Z"
       transform="scale(0.26458333)" />
    <path
       style="fill:#000000;fill-opacity:1;stroke:#000000;stroke-width:0.179809;stroke-linecap:butt;stroke-linejoin:miter;stroke-miterlimit:4;stroke-dasharray:none;stroke-opacity:1"
       d="M 163.60387,29.465013 162.35135,32.335553 H 160.02068 L 161.71283,33.958033 160.6912,36.204553 163.24528,34.082843 165.46531,35.978903 164.75561,34.003633 166.68344,32.472343 164.39463,32.460363 Z"
       id="path7421"
       sodipodi:nodetypes="ccccccccccc" />
    <path
       style="fill:#000000;fill-opacity:1;stroke:#000000;stroke-width:0.233092;stroke-linecap:butt;stroke-linejoin:miter;stroke-miterlimit:4;stroke-dasharray:none;stroke-opacity:1"
       d="M 170.26434,13.953452 168.61741,17.622132 H 165.55287 L 167.77783,19.695732 166.43451,22.566882 169.79282,19.855242 172.7119,22.278492 171.77872,19.754012 174.31359,17.796962 171.30408,17.781642 Z"
       id="path7421-1"
       sodipodi:nodetypes="ccccccccccc" />
    <path
       style="fill:#000000;fill-opacity:1;stroke:#000000;stroke-width:0.163411;stroke-linecap:butt;stroke-linejoin:miter;stroke-miterlimit:4;stroke-dasharray:none;stroke-opacity:1"
       d="M 86.923249,15.502995 85.815851,18.184565 H 83.755251 L 85.251321,19.700235 84.348071,21.798865 86.606199,19.816825 88.568989,21.588075 87.941519,19.742835 89.645969,18.312345 87.622369,18.301155 Z"
       id="path7421-1-7"
       sodipodi:nodetypes="ccccccccccc" />
    <circle
       style="fill:#000000;fill-opacity:1;stroke:#000000;stroke-width:0.212526;stroke-miterlimit:4;stroke-dasharray:none"
       id="path7689"
       cx="55.031284"
       cy="38.08707"
       r="1.0654411" />
    <circle
       style="fill:#000000;fill-opacity:1;stroke:#000000;stroke-width:0.212526;stroke-miterlimit:4;stroke-dasharray:none"
       id="path7691"
       cx="37.91671"
       cy="66.722832"
       r="0.74442536" />
    <circle
       style="fill:#000000;fill-opacity:1;stroke:#000000;stroke-width:0.212526;stroke-miterlimit:4;stroke-dasharray:none"
       id="path7693"
       cx="76.626823"
       cy="50.34547"
       r="0.74442536" />
    <circle
       style="fill:#000000;fill-opacity:1;stroke:#000000;stroke-width:0.212526;stroke-miterlimit:4;stroke-dasharray:none"
       id="path7695"
       cx="51.465248"
       cy="19.52626"
       r="0.89331031" />
    <text
       xml:space="preserve"
       style="font-size:28.2222px;line-height:1.25;font-family:'Lao Sangam MN';-inkscape-font-specification:'Lao Sangam MN';stroke-width:0.264583"
       x="88.094528"
       y="34.819973"
       id="text9536"><tspan
         sodipodi:role="line"
         id="tspan9534"
         style="font-style:normal;font-variant:normal;font-weight:normal;font-stretch:normal;font-size:28.2222px;font-family:'Annie Use Your Telescope';-inkscape-font-specification:'Annie Use Your Telescope';stroke-width:0.264583"
         x="88.094528"
         y="34.819973">project</tspan></text>
  </g>
</svg>
